<?xml version="1.0" encoding="UTF-8" standalone="no"?>
<svg
   version="1.1"
   id="svg5"
   xml:space="preserve"
   inkscape:version="1.2.2 (b0a8486541, 2022-12-01)"
   sodipodi:docname="icon.svg"
   viewBox="11.12 44.97 164.53 171.95"
   xmlns:inkscape="http://www.inkscape.org/namespaces/inkscape"
   xmlns:sodipodi="http://sodipodi.sourceforge.net/DTD/sodipodi-0.dtd"
   xmlns="http://www.w3.org/2000/svg"
   xmlns:svg="http://www.w3.org/2000/svg"><sodipodi:namedview
     id="namedview7"
     pagecolor="#ffffff"
     bordercolor="#000000"
     borderopacity="0.25"
     inkscape:showpageshadow="2"
     inkscape:pageopacity="0.0"
     inkscape:pagecheckerboard="0"
     inkscape:deskcolor="#d1d1d1"
     inkscape:document-units="mm"
     showgrid="false"
     inkscape:zoom="2.448132"
     inkscape:cx="217.71702"
     inkscape:cy="128.26106"
     inkscape:window-width="1920"
     inkscape:window-height="1131"
     inkscape:window-x="0"
     inkscape:window-y="0"
     inkscape:window-maximized="1"
     inkscape:current-layer="layer1" /><defs
     id="defs2" /><g
     inkscape:label="Layer 1"
     inkscape:groupmode="layer"
     id="layer1"><path
       d="m 68.55411,49.332137 c -26.728462,9.423495 -46.774803,30.497871 -54.656277,57.226283 -3.9407355,13.36429 -3.598062,36.49464 0.685347,50.3729 19.018323,61.33833 97.49035,80.35676 143.23712,34.78124 8.73816,-8.73817 17.81897,-21.93108 17.81897,-25.8718 0,-0.51399 -16.1056,-0.85661 -35.80928,-0.85661 h -35.80926 l 0.68534,-6.51078 c 1.02802,-8.22416 -3.42673,-16.96234 -11.308194,-22.27377 -4.968761,-3.42675 -7.538803,-3.9407 -15.077598,-3.42675 -7.710139,0.6854 -10.108845,1.7134 -15.248933,7.02484 -5.311425,5.14008 -6.339445,7.53876 -7.024789,15.76295 l -0.85668,9.59484 -12.164873,-0.51405 -12.16488,-0.51399 -1.542023,-7.02477 c -2.227374,-10.62284 1.370692,-25.18646 7.538794,-30.49785 7.5388,-6.33944 22.273719,-11.13688 40.778036,-13.36427 14.049575,-1.71334 17.818969,-2.91274 24.32975,-7.53877 18.33297,-13.021606 44.54743,-23.815732 59.9677,-25.015116 l 5.99676,-0.513986 -6.6821,-7.196146 C 151.99487,62.696364 136.06059,52.587525 123.03905,48.475454 106.7621,43.506704 84.31705,43.849377 68.55411,49.332137 Z m 22.959059,94.406313 c 6.682115,5.48273 8.395478,13.70685 4.454741,21.2457 -3.42672,6.51076 -12.678881,10.96546 -19.875007,9.42349 -6.510781,-1.37073 -13.535564,-10.10891 -13.535564,-16.44829 0,-6.16808 3.940729,-14.39228 8.0528,-16.79099 5.825437,-3.25536 15.420275,-2.22735 20.90303,2.57009 z"
       id="path242"
       style="fill:#4b68db;fill-opacity:1;stroke:none;stroke-width:0.171336" /><text
       xml:space="preserve"
       style="font-size:17.6389px;font-family:'URW Bookman';-inkscape-font-specification:'URW Bookman';text-align:center;text-anchor:middle;fill:#000000;fill-opacity:1;stroke:#363635;stroke-width:0.002"
       x="67.048683"
       y="110.86567"
       id="text1762"><tspan
         sodipodi:role="line"
         id="tspan1760"
         style="stroke-width:0.002;fill:#000000;fill-opacity:1"
         x="67.048683"
         y="110.86567" /></text><text
       xml:space="preserve"
       style="font-style:normal;font-variant:normal;font-weight:normal;font-stretch:normal;font-size:14.1111px;font-family:Rachana;-inkscape-font-specification:Rachana;text-align:center;text-anchor:middle;fill:#000000;fill-opacity:1;stroke:#363635;stroke-width:0.002"
       x="52.78664"
       y="114.02368"
       id="text2135"><tspan
         sodipodi:role="line"
         id="tspan2133"
         style="stroke-width:0.002"
         x="52.78664"
         y="114.02368" /></text></g></svg>
