<svg xml:space="preserve" id="svg2" version="1.1" sodipodi:docname="trial (copy).svg" inkscape:version="1.2.2 (b0a8486541, 2022-12-01)" xmlns:inkscape="http://www.inkscape.org/namespaces/inkscape" xmlns:sodipodi="http://sodipodi.sourceforge.net/DTD/sodipodi-0.dtd" xmlns="http://www.w3.org/2000/svg" xmlns:svg="http://www.w3.org/2000/svg" xmlns:rdf="http://www.w3.org/1999/02/22-rdf-syntax-ns#" xmlns:cc="http://creativecommons.org/ns#" xmlns:dc="http://purl.org/dc/elements/1.1/" viewBox="1826.47 386.78 1041.93 1243.37"><sodipodi:namedview id="namedview281" pagecolor="#ffffff" bordercolor="#000000" borderopacity="0.25" inkscape:showpageshadow="2" inkscape:pageopacity="0.0" inkscape:pagecheckerboard="0" inkscape:deskcolor="#d1d1d1" showgrid="false" inkscape:zoom="0.51703045" inkscape:cx="987.36931" inkscape:cy="702.08631" inkscape:window-width="1920" inkscape:window-height="1131" inkscape:window-x="0" inkscape:window-y="0" inkscape:window-maximized="1" inkscape:current-layer="svg2"/><metadata id="metadata8"><rdf:RDF><cc:Work rdf:about=""><dc:format>image/svg+xml</dc:format><dc:type rdf:resource="http://purl.org/dc/dcmitype/StillImage"/></cc:Work></rdf:RDF></metadata><defs id="defs6"><clipPath id="clipPath38" clipPathUnits="userSpaceOnUse"><path id="path36" d="m 7523.88,9895.93 -380.64,139.27 -1341.75,952.4 -110.4,-175.6 c 0,0 761.05,-918.27 1157.06,-1171.66 0,0 247.46,-230.66 537.89,-260.2 290.44,-29.54 137.84,515.79 137.84,515.79 z"/></clipPath><clipPath id="clipPath54" clipPathUnits="userSpaceOnUse"><path id="path52" d="m 8085.91,5419.24 c 14.13,-598.68 313.88,-2958.04 313.88,-2958.04 l 102.57,-15.3 85.95,71 352.29,2796.11 z"/></clipPath><clipPath id="clipPath68" clipPathUnits="userSpaceOnUse"><path id="path66" d="M 8211.07,7425.91 7974.04,5233.99 c 0,0 638.34,-302.97 995.03,-169.3 0,0 931.08,37.38 1015.07,150.37 0,0 -49.89,1805.92 -303.38,2273.01 0,0 -1196.73,-129.24 -1469.69,-62.16 z"/></clipPath><clipPath id="clipPath86" clipPathUnits="userSpaceOnUse"><path id="path84" d="m 8642.86,10661.3 c 0,0 -281.77,-589.1 50,-623.6 331.77,-34.6 592.73,301.4 519.13,552.2 -73.6,250.7 -410.22,465.5 -569.13,71.4 z"/></clipPath><clipPath id="clipPath120" clipPathUnits="userSpaceOnUse"><path id="path118" d="m 8755.34,9895.94 -1414.31,115.96 -118.24,-669.12 c 0,0 871.41,-456.91 1036.74,-385.36 165.33,71.55 495.81,938.52 495.81,938.52 z"/></clipPath><clipPath id="clipPath132" clipPathUnits="userSpaceOnUse"><path id="path130" d="m 8647.79,3908.9 c 0,0 463.54,1485.72 764.41,1698.03 300.86,212.32 1771.5,386.07 1967.6,256.23 196.1,-129.84 1145.4,-1448.12 814.2,-1546.77 C 11862.8,4217.73 8637.4,3300.7 8647.79,3908.9 Z"/></clipPath><clipPath id="clipPath146" clipPathUnits="userSpaceOnUse"><path id="path144" d="m 10356.5,6292.43 c 0,0 -44.1,1316.49 -71.7,1436.85 -64.3,279.55 -146.9,591.45 -146.9,591.45 l -465.29,-129.26 c 0,0 132.52,-450.86 169.11,-553.29 31.44,-88.04 209.58,-1019.08 258.98,-1278.8 -22.9,-61.17 -67.5,-191.9 -52.7,-247.67 19.7,-74.06 201.4,-107.65 201.4,-107.65 0,0 112.9,0 144.9,39.29 32,39.29 -37.8,249.08 -37.8,249.08 z"/></clipPath><clipPath id="clipPath164" clipPathUnits="userSpaceOnUse"><path id="path162" d="m 16843.4,5161.66 c 129.8,-584.63 850,-2686.76 850,-2686.76 l 103.6,4.9 70.5,86.3 -195.5,2811.39 z"/></clipPath><clipPath id="clipPath184" clipPathUnits="userSpaceOnUse"><path id="path182" d="m 15840,5261.62 c 14.1,-598.68 313.9,-2800.42 313.9,-2800.42 l 102.6,-15.3 85.9,71 352.3,2796.11 z"/></clipPath><clipPath id="clipPath226" clipPathUnits="userSpaceOnUse"><path id="path224" d="m 16182.3,10609.6 c 0,0 -182.5,-626.91 150.5,-607.2 333,19.7 536,393.6 422.7,629.1 -113.3,235.5 -480.4,392.9 -573.2,-21.9 z"/></clipPath><clipPath id="clipPath292" clipPathUnits="userSpaceOnUse"><path id="path290" d="m 17869.7,8315.51 c 0,0 106.7,-658.67 11.5,-753.64 -211.8,-211.47 -1716.9,98.77 -1716.9,98.77 l -30.8,205.13 c 0,0 1071.5,119.04 1231.6,81.05 l -46.2,213.73 c 0,0 373.6,105.59 550.8,154.96 z"/></clipPath><clipPath id="clipPath324" clipPathUnits="userSpaceOnUse"><path id="path322" d="m 20896.3,2582.4 h -2185 c -123.8,0 -224.1,100.4 -224.1,224.1 v 3338.42 c 0,123.76 100.3,224.09 224.1,224.09 h 2185 c 123.7,0 224,-100.33 224,-224.09 V 2806.5 c 0,-123.7 -100.3,-224.1 -224,-224.1 z"/></clipPath><clipPath id="clipPath380" clipPathUnits="userSpaceOnUse"><path id="path378" d="m 29214,10002.7 c 13.5,-2.9 26.8,-6.06 39.9,-9.45 394.2,-102.36 643,-474.66 695.9,-864.24 37.2,-274.32 21.6,-558.58 25.8,-834.92 4.6,-297.17 8.7,-594.41 3.7,-891.61 -3.7,-218.62 -9.9,-456.3 -122.6,-650.69 -120.1,-207.31 -367.7,-293.92 -595.2,-321.97 -138.1,-17.02 -277.3,-13.07 -415.7,-3.73 -109.9,7.41 -267.8,-4.47 -361.6,62.81 -53.6,38.46 -80.7,103.26 -102.1,165.66 -118.8,346.87 -137.3,719.02 -149,1085.48 -13.2,412.84 -19.1,825.93 -17.6,1238.98 0.9,256.59 32.3,494.3 145.5,726.8 147.4,302.68 551.1,361.78 853,296.88 z"/></clipPath><clipPath id="clipPath396" clipPathUnits="userSpaceOnUse"><path id="path394" d="m 28235.6,5161.66 c 129.7,-584.63 849.9,-2686.76 849.9,-2686.76 l 103.6,4.9 70.6,86.3 -195.5,2811.39 z"/></clipPath><clipPath id="clipPath416" clipPathUnits="userSpaceOnUse"><path id="path414" d="m 27232.2,5261.62 c 14.1,-598.68 313.9,-2800.42 313.9,-2800.42 l 102.5,-15.3 86,71 352.3,2796.11 z"/></clipPath><clipPath id="clipPath444" clipPathUnits="userSpaceOnUse"><path id="path442" d="m 27211.3,6985.39 c -43.9,26.97 -71.3,74.15 -74.2,125.64 -19.4,345.75 -88,2039.11 391.6,2547.4 387.5,410.67 740.7,216.93 740.7,216.93 0,0 994.1,-399.63 641.6,-1592.83 -77.3,-261.63 155,-832.27 88.4,-1126.7 -82.3,-363.95 -1427.9,-391.47 -1788.1,-170.44 z"/></clipPath><clipPath id="clipPath464" clipPathUnits="userSpaceOnUse"><path id="path462" d="m 27574.5,10609.6 c 0,0 -182.5,-626.91 150.5,-607.2 332.9,19.7 535.9,393.6 422.6,629.1 -113.3,235.5 -480.3,392.9 -573.1,-21.9 z"/></clipPath><clipPath id="clipPath524" clipPathUnits="userSpaceOnUse"><path id="path522" d="m 26967.6,8566.38 c 0,0 -545.8,-383.85 -672.8,-339.81 -282.7,98.05 -661.6,1587.44 -661.6,1587.44 l 171,117.32 c 0,0 575.4,-911.65 611.3,-1072.29 l 172,134.95 c 0,0 258.3,-289.83 380.1,-427.61 z"/></clipPath></defs><g transform="matrix(1.3333333,0,0,-1.3333333,0,1886.1867)" id="g10"><g transform="scale(0.1)" id="g12"><g transform="scale(2.10877)" id="g14"/><g id="g32"><g clip-path="url(#clipPath38)" id="g34"/></g><g id="g48"><g clip-path="url(#clipPath54)" id="g50"/></g><g id="g62"><g clip-path="url(#clipPath68)" id="g64"/></g><g id="g80"><g clip-path="url(#clipPath86)" id="g82"/></g><g id="g114"><g clip-path="url(#clipPath120)" id="g116"/></g><g id="g126"><g clip-path="url(#clipPath132)" id="g128"/></g><g id="g140"><g clip-path="url(#clipPath146)" id="g142"/></g><g transform="scale(1.16504)" id="g150"><path id="path152" style="fill:#a696f9;fill-opacity:1;fill-rule:nonzero;stroke:none" d="m 16300,1868.09 c 0,-121.37 -867.3,-219.74 -1937.3,-219.74 -1069.9,0 -1937.3,98.37 -1937.3,219.74 0,121.37 867.4,219.73 1937.3,219.73 1070,0 1937.3,-98.36 1937.3,-219.73"/></g><g transform="scale(1.09617)" id="g154"><path id="path156" style="fill:#da8c8d;fill-opacity:1;fill-rule:nonzero;stroke:none" d="m 15365.7,4708.83 c 118.5,-533.34 775.5,-2451.05 775.5,-2451.05 l 94.5,4.47 64.3,78.73 -178.3,2564.75 -756,-196.9"/></g><g id="g158"><g clip-path="url(#clipPath164)" id="g160"><g transform="scale(1.08823)" id="g166"><path id="path168" style="fill:#c17276;fill-opacity:1;fill-rule:nonzero;stroke:none" d="m 15523.6,4561.81 c 0,0 536.8,6.52 776.4,157.94 l -60.8,221.74 -825.8,-59.25 c 0,0 -11.6,-284.37 110.2,-320.43"/></g></g></g><g transform="scale(1.10026)" id="g170"><path id="path172" style="fill:#343766;fill-opacity:1;fill-rule:nonzero;stroke:none" d="m 16250.8,2359.07 -219.3,-48.35 34.8,-102.52 c 0,0 -236.1,-76.07 -326.2,-230.13 l 559.9,110.07 -49.2,270.93"/></g><g transform="scale(1.02421)" id="g174"><path id="path176" style="fill:#da8c8d;fill-opacity:1;fill-rule:nonzero;stroke:none" d="m 15465.5,5137.23 c 13.8,-584.53 306.5,-2734.22 306.5,-2734.22 l 100.2,-14.93 83.8,69.32 344,2730 -834.5,-50.17"/></g><g id="g178"><g clip-path="url(#clipPath184)" id="g180"><g transform="scale(1.02423)" id="g186"><path id="path188" style="fill:#c17276;fill-opacity:1;fill-rule:nonzero;stroke:none" d="m 15465.2,4883.89 c 0,0 478.3,-210.41 815.1,-66.13 336.7,144.28 0,0 0,0 l 19.4,369.55 -904.1,62.95 69.6,-366.37"/></g></g></g><g transform="scale(1.00371)" id="g190"><path id="path192" style="fill:#343766;fill-opacity:1;fill-rule:nonzero;stroke:none" d="m 16300,2534 -246.1,-5.48 15.7,-117.67 c 0,0 -270,-31.68 -399.7,-178.23 l 625.5,-0.41 4.6,301.79"/></g><g transform="scale(1.08823)" id="g194"><path id="path196" style="fill:#4b68db;fill-opacity:1;fill-rule:nonzero;stroke:none" d="m 14670.8,6823.82 -217.9,-2014.2 c 0,0 586.6,-278.4 914.4,-155.57 0,0 855.5,34.35 932.7,138.18 0,0 -45.9,1659.49 -278.7,2088.71 0,0 -1099.8,-118.76 -1350.5,-57.12"/></g><g transform="scale(1.02596)" id="g198"><path id="path200" style="fill:#001463;fill-opacity:1;fill-rule:nonzero;stroke:none" d="m 16300,4936.52 c 0,0 -19.3,1278.33 -32.1,1524.6 0,0 -316.8,-1352.46 -212.2,-1557.11 0,0 190.3,-6.09 244.3,32.51"/></g><g transform="scale(1.0964)" id="g202"><path id="path204" style="fill:#c6bbff;fill-opacity:1;fill-rule:nonzero;stroke:none" d="m 14428.2,6371.21 c -40,24.6 -65,67.63 -67.6,114.6 -17.7,315.35 -80.3,1859.82 357.1,2323.42 353.5,374.54 675.6,197.86 675.6,197.86 0,0 906.7,-364.5 585.2,-1452.78 -70.5,-238.63 141.4,-759.1 80.6,-1027.64 -75,-331.95 -1302.3,-357.05 -1630.9,-155.46"/></g><g transform="scale(1.00723)" id="g206"><path id="path208" style="fill:#c6bbff;fill-opacity:1;fill-rule:nonzero;stroke:none" d="m 16157.4,9711.48 c 0,0 -712.3,-515.45 -817.9,-1285.89 0,0 443.5,-189.97 702,-179.42 258.5,10.56 115.9,1465.31 115.9,1465.31"/></g><path id="path210" style="fill:#ffffff;fill-opacity:1;fill-rule:nonzero;stroke:none" d="m 13698.6,9227.85 c 0,0 993.4,-484.77 2234.4,-284.27 l 229.4,-1739.76 c 0,0 -1680.4,-272.07 -2084.5,423.66 l -379.3,1600.37"/><g transform="scale(1.05688)" id="g212"><path id="path214" style="fill:#a696f9;fill-opacity:1;fill-rule:nonzero;stroke:none" d="m 16264.5,9809.74 c -35.6,-61.5 -358.5,34.26 -669.1,213.66 -310.7,179.4 -533.9,374.7 -498.4,436.2 35.5,61.4 316.2,-34.1 626.9,-213.5 310.7,-179.4 576.1,-374.86 540.6,-436.36"/></g><g transform="scale(1.0349)" id="g216"><path id="path218" style="fill:#da8c8d;fill-opacity:1;fill-rule:nonzero;stroke:none" d="m 15636.6,10251.9 c 0,0 -176.3,-605.82 145.5,-586.78 321.7,19.03 517.9,380.38 408.4,607.88 -109.5,227.6 -464.2,379.6 -553.9,-21.1"/></g><g id="g220"><g clip-path="url(#clipPath226)" id="g222"><g transform="scale(1.02907)" id="g228"><path id="path230" style="fill:#c17276;fill-opacity:1;fill-rule:nonzero;stroke:none" d="m 16201,10295.7 c 37,14.6 77.6,35.6 87.6,74.1 11.4,44.2 -24.4,86.7 -62.3,112.3 -93.7,63.2 -212.8,77.5 -325.6,69.7 -83.2,-5.8 -168.5,-24 -240.3,-68.3 -66.3,-40.9 -127.6,-113.9 -130.9,-195.3 -2.4,-61.9 53.9,-83.6 106.4,-89.7 79.3,-9.2 163.3,0.5 241.8,11.7 98.5,14.1 195.5,38.3 289,72.5 11.4,4.2 22.9,8.5 34.3,13"/></g><g transform="scale(1.00396)" id="g232"/></g></g><g transform="scale(1.03334)" id="g236"><path id="path238" style="fill:#da8c8d;fill-opacity:1;fill-rule:nonzero;stroke:none" d="m 16245.9,10163.9 c 0,0 -44.4,-311.83 54.1,-614.98 0,0 -189.1,-149.05 -346.4,-146.36 -157.1,2.7 11.3,571.92 11.3,571.92 l 281,189.42"/></g><g transform="scale(1.0181)" id="g240"><path id="path242" style="fill:#c17276;fill-opacity:1;fill-rule:nonzero;stroke:none" d="m 16139.2,9841.08 c 0,0 22.8,-8.12 144.9,89.05 0,0 15.9,-137.84 -158.6,-209.09 0,0 7.2,83.66 13.7,120.04"/></g><g transform="scale(1.04138)" id="g244"><path id="path246" style="fill:#001463;fill-opacity:1;fill-rule:nonzero;stroke:none" d="m 15944.2,10244 c 4.7,-82.8 25.9,-164.6 62.1,-239.3 -1.6,21.2 1.8,46.6 20.6,56.4 14.7,7.6 33.5,1.9 45.2,-9.7 11.7,-11.6 17.6,-27.9 21.6,-43.9 5.4,-21.91 7.9,-45.14 2.1,-66.98 -5.7,-21.83 -20.8,-42.08 -42.1,-49.57 22.6,-54.75 44.2,-111.24 66.8,-165.98 100.3,105.5 163.5,245.64 176.1,390.63 3.4,38.2 3.3,76.9 -3.7,114.5 -11.5,61.7 -42.1,119.8 -86.4,164.2 -17.6,17.7 -37.7,33.4 -60.9,42.4 -53.1,20.7 -117,1.2 -155.9,-40.5 -38.8,-41.7 -48.7,-95.3 -45.5,-152.2"/></g><g transform="scale(1.03223)" id="g248"><path id="path250" style="fill:#001463;fill-opacity:1;fill-rule:nonzero;stroke:none" d="m 15752.9,10664.4 c 87.7,4.3 175.6,13.3 249.3,29.9 4.6,1 9,1.9 13.5,2.7 221.6,38.8 284.3,-293.8 65,-344.2 -117.4,-26.9 -243.8,-52.6 -306.2,-54.5 0,0 -272.2,-68.5 -388.3,14.6 -115.9,83.1 56.9,348.4 366.7,351.5"/></g><g transform="scale(1.01145)" id="g252"><path id="path254" style="fill:#ffffff;fill-opacity:1;fill-rule:nonzero;stroke:none" d="m 16300,9607.84 -134.2,-102.55 c 0,0 -2,160.3 18.6,233.13 l 47.2,22.53 c 0,0 5.6,-120.42 68.4,-153.11"/></g><g transform="scale(1.0381)" id="g256"><path id="path258" style="fill:#ffffff;fill-opacity:1;fill-rule:nonzero;stroke:none" d="m 15881.4,9361.13 133.9,-204.18 c 0,0 261.8,200.96 284.7,335.04 l -74.9,35.02 c 0,0 -198.3,-148.74 -343.7,-165.88"/></g><g transform="scale(1.04944)" id="g260"><path id="path262" style="fill:#c6bbff;fill-opacity:1;fill-rule:nonzero;stroke:none" d="m 15442,10508 c 0,0 586.5,-270.8 779.9,-457.6 0,0 78.1,388.9 -34.2,474.2 -112.5,85.3 -190.3,84.6 -190.3,84.6 0,0 -53.8,78.9 -156.3,102.7 -156.9,36.4 -399.1,-203.9 -399.1,-203.9"/></g><g transform="scale(1.07037)" id="g264"><path id="path266" style="fill:#a696f9;fill-opacity:1;fill-rule:nonzero;stroke:none" d="m 14906.8,10327.8 c 0,0 828.9,-627.22 1111.1,-641.46 282.1,-14.24 -802.7,783.56 -1111.1,641.46"/></g><path id="path268" style="fill:#da8c8d;fill-opacity:1;fill-rule:nonzero;stroke:none" d="m 16133.5,7865.77 c 0,0 -320.3,79.25 -348.9,71.06 -28.7,-8.18 4.1,-200.59 110.5,-237.43 106.4,-36.84 359.6,-56.57 359.6,-56.57 0,0 -75.5,211.84 -121.2,222.94"/><path id="path270" style="fill:#da8c8d;fill-opacity:1;fill-rule:nonzero;stroke:none" d="m 16173.7,7870.14 c -7,-0.75 -152.6,112.33 -152.6,112.33 0,0 -1.7,-39.17 9.2,-56.17 10.8,-16.99 79.8,-92.29 79.8,-92.29 l 63.6,36.13"/><path id="path272" style="fill:#da8c8d;fill-opacity:1;fill-rule:nonzero;stroke:none" d="m 13852.7,8529.82 c 0,0 170.3,-201.27 170.3,-251.2 0,-49.94 -85.2,-88.99 -85.2,-88.99 0,0 -85.7,191.89 -85.1,340.19"/><g transform="scale(1.10668)" id="g274"><path id="path276" style="fill:#c6bbff;fill-opacity:1;fill-rule:nonzero;stroke:none" d="m 15403,8838.8 c 0,0 709,-436.48 897,-1282.51 0,0 -456.2,-125.95 -731.3,-205.24 -223.4,-64.37 -165.7,1487.75 -165.7,1487.75"/></g><g transform="scale(1.08094)" id="g278"><path id="path280" style="fill:#a696f9;fill-opacity:1;fill-rule:nonzero;stroke:none" d="m 15939.4,7526.07 c 0,0 -55.1,408.35 -106.5,497.46 -51.3,89.1 30.2,-580.41 53.2,-707.48 23.1,-127.07 413.9,-607.16 413.9,-607.16 0,0 -113.4,743.46 -162,812.05 -48.5,68.59 -198.6,5.13 -198.6,5.13"/></g><g transform="scale(1.10285)" id="g282"><path id="path284" style="fill:#da8c8d;fill-opacity:1;fill-rule:nonzero;stroke:none" d="m 16203.2,7540.04 c 0,0 96.8,-597.24 10.5,-683.36 -192.1,-191.74 -1556.8,89.56 -1556.8,89.56 l -27.9,186 c 0,0 971.5,107.94 1116.7,73.49 l -41.9,193.8 c 0,0 338.8,95.75 499.4,140.51"/></g><g id="g286"><g clip-path="url(#clipPath292)" id="g288"><g transform="scale(1.09945)" id="g294"><path id="path296" style="fill:#c17276;fill-opacity:1;fill-rule:nonzero;stroke:none" d="m 16314.6,7481.79 c 27.1,19.98 56.3,50.17 46.2,82.32 -6.8,21.53 -29,33.94 -49.9,42.35 -78.5,31.48 -164.8,36.73 -249.3,36.86 -107.3,0.15 -225.1,-11.83 -300.8,-88.02 -56.6,-57.02 -114.6,-235.61 1.4,-263.61 52.3,-12.62 112.7,2.75 163.7,14.08 65.7,14.59 130,35.57 191.6,62.53 69.6,30.42 135.8,68.47 197.1,113.49"/></g></g></g><g transform="scale(1.18942)" id="g298"><path id="path300" style="fill:#1f1949;fill-opacity:1;fill-rule:nonzero;stroke:none" d="m 16300,2031.25 c 0,-105.18 -85.2,-190.35 -190.3,-190.35 -105.2,0 -190.4,85.17 -190.4,190.35 0,105.09 85.2,190.26 190.4,190.26 105.1,0 190.3,-85.17 190.3,-190.26"/></g><g transform="scale(1.27077)" id="g302"><path id="path304" style="fill:#1f1949;fill-opacity:1;fill-rule:nonzero;stroke:none" d="m 16300,1901.21 c 0,-98.44 -79.7,-178.15 -178.2,-178.15 -98.3,0 -178.1,79.71 -178.1,178.15 0,98.37 79.8,178.09 178.1,178.09 98.5,0 178.2,-79.72 178.2,-178.09"/></g><g transform="scale(1.1809)" id="g306"><path id="path308" style="fill:#343766;fill-opacity:1;fill-rule:nonzero;stroke:none" d="m 16300,2040.31 c 0,-37.94 -30.8,-68.68 -68.8,-68.68 -37.9,0 -68.6,30.74 -68.6,68.68 0,37.93 30.7,68.67 68.6,68.67 38,0 68.8,-30.74 68.8,-68.67"/></g><g transform="scale(1.26185)" id="g310"><path id="path312" style="fill:#343766;fill-opacity:1;fill-rule:nonzero;stroke:none" d="m 16300,1914.64 c 0,-35.5 -28.8,-64.34 -64.3,-64.34 -35.5,0 -64.2,28.84 -64.2,64.34 0,35.43 28.7,64.28 64.2,64.28 35.5,0 64.3,-28.85 64.3,-64.28"/></g><g transform="scale(1.29572)" id="g314"><path id="path316" style="fill:#001463;fill-opacity:1;fill-rule:nonzero;stroke:none" d="m 16127.1,1993.02 h -1686.3 c -95.5,0 -172.9,77.48 -172.9,172.95 v 2576.49 c 0,95.51 77.4,172.95 172.9,172.95 h 1686.3 c 95.5,0 172.9,-77.44 172.9,-172.95 V 2165.97 c 0,-95.47 -77.4,-172.95 -172.9,-172.95"/></g><g id="g318"><g clip-path="url(#clipPath324)" id="g320"><g transform="scale(1.29577)" id="g326"><path id="path328" style="fill:#f3b304;fill-opacity:1;fill-rule:nonzero;stroke:none" d="m 16429.4,1992.95 h -1686.2 c -95.6,0 -173,77.48 -173,172.95 v 2576.41 c 0,95.5 77.4,172.94 173,172.94 h 1686.2 c 95.5,0 173,-77.44 173,-172.94 V 2165.9 c 0,-95.47 -77.5,-172.95 -173,-172.95"/></g></g></g><g transform="scale(1.28333)" id="g330"><path id="path332" style="fill:#1f1949;fill-opacity:1;fill-rule:nonzero;stroke:none" d="m 14890.5,4446.09 c 117.5,5.84 235,8.9 352.4,10.97 58.8,1.3 117.5,1.59 176.2,2.36 l 176.2,0.78 176.2,-0.75 c 58.7,-0.78 117.5,-1.03 176.1,-2.34 117.5,-2.07 235,-5.14 352.4,-11.02 -117.4,-5.87 -234.9,-8.94 -352.4,-11.01 -58.6,-1.32 -117.4,-1.57 -176.1,-2.35 l -176.2,-0.74 -176.2,0.78 c -58.7,0.76 -117.4,1.05 -176.2,2.35 -117.4,2.08 -234.9,5.14 -352.4,10.97"/></g><g transform="scale(1.28333)" id="g334"><path id="path336" style="fill:#1f1949;fill-opacity:1;fill-rule:nonzero;stroke:none" d="m 14890.5,3941.65 c 117.5,5.84 235,8.9 352.4,10.97 58.8,1.3 117.5,1.59 176.2,2.35 l 176.2,0.78 176.2,-0.74 c 58.7,-0.78 117.5,-1.03 176.1,-2.35 117.5,-2.06 235,-5.13 352.4,-11.01 -117.4,-5.87 -234.9,-8.94 -352.4,-11.01 -58.6,-1.32 -117.4,-1.57 -176.1,-2.35 l -176.2,-0.74 -176.2,0.78 c -58.7,0.76 -117.4,1.05 -176.2,2.35 -117.4,2.08 -234.9,5.13 -352.4,10.97"/></g><g transform="scale(1.28333)" id="g338"><path id="path340" style="fill:#1f1949;fill-opacity:1;fill-rule:nonzero;stroke:none" d="m 14890.5,3437.2 c 117.5,5.85 235,8.9 352.4,10.98 58.8,1.31 117.5,1.59 176.2,2.36 l 176.2,0.77 176.2,-0.73 c 58.7,-0.79 117.5,-1.05 176.1,-2.36 117.5,-2.07 235,-5.13 352.4,-11.02 -117.4,-5.87 -234.9,-8.94 -352.4,-11.01 -58.6,-1.3 -117.4,-1.55 -176.1,-2.35 l -176.2,-0.74 -176.2,0.78 c -58.7,0.77 -117.4,1.06 -176.2,2.36 -117.4,2.07 -234.9,5.13 -352.4,10.96"/></g><g transform="scale(1.28333)" id="g342"><path id="path344" style="fill:#1f1949;fill-opacity:1;fill-rule:nonzero;stroke:none" d="m 14890.5,2932.77 c 117.5,5.85 235,8.89 352.4,10.99 58.8,1.25 117.5,1.56 176.2,2.34 l 176.2,0.78 176.2,-0.78 c 58.7,-0.78 117.5,-1.02 176.1,-2.34 117.5,-2.03 235,-5.14 352.4,-10.99 -117.4,-5.92 -234.9,-8.96 -352.4,-10.98 -58.6,-1.33 -117.4,-1.56 -176.1,-2.42 l -176.2,-0.7 -176.2,0.78 c -58.7,0.78 -117.4,1.01 -176.2,2.34 -117.4,2.1 -234.9,5.14 -352.4,10.98"/></g><g transform="scale(1.28333)" id="g346"><path id="path348" style="fill:#1f1949;fill-opacity:1;fill-rule:nonzero;stroke:none" d="m 14890.5,2428.3 c 117.5,5.85 235,8.88 352.4,10.99 58.8,1.32 117.5,1.56 176.2,2.34 l 176.2,0.78 176.2,-0.71 c 58.7,-0.78 117.5,-1.09 176.1,-2.33 117.5,-2.11 235,-5.15 352.4,-11.07 -117.4,-5.84 -234.9,-8.96 -352.4,-10.99 -58.6,-1.32 -117.4,-1.56 -176.1,-2.33 l -176.2,-0.78 -176.2,0.78 c -58.7,0.77 -117.4,1.09 -176.2,2.33 -117.4,2.11 -234.9,5.15 -352.4,10.99"/></g><g transform="scale(1.25352)" id="g350"><path id="path352" style="fill:#343766;fill-opacity:1;fill-rule:nonzero;stroke:none" d="m 15370.2,5095.37 h 900.9 v 1694.9 h -900.9 z m 929.8,-28.9 h -958.7 v 1752.7 h 958.7 v -1752.7"/></g><g transform="scale(1.23481)" id="g354"><path id="path356" style="fill:#343766;fill-opacity:1;fill-rule:nonzero;stroke:none" d="m 16300,6845.86 h -479.4 v 123.89 h 479.4 v -123.89"/></g><g transform="scale(1.87548)" id="g358"/><g transform="scale(1.67547)" id="g362"/><g transform="scale(1.59767)" id="g366"/><g transform="scale(1.83969)" id="g370"/><g id="g374"><g clip-path="url(#clipPath380)" id="g376"><g transform="scale(1.83939)" id="g382"/></g></g><g transform="scale(1.79507)" id="g386"/><g id="g390"><g clip-path="url(#clipPath396)" id="g392"><g transform="scale(1.78714)" id="g398"/></g></g><g transform="scale(1.79917)" id="g402"/><g transform="scale(1.72312)" id="g406"/><g id="g410"><g clip-path="url(#clipPath416)" id="g412"><g transform="scale(1.72313)" id="g418"/></g></g><g transform="scale(1.70262)" id="g422"/><g transform="scale(1.78714)" id="g426"/><g transform="scale(1.72487)" id="g430"/><g transform="scale(1.79531)" id="g434"/><g id="g438"><g clip-path="url(#clipPath444)" id="g440"><g transform="scale(1.77988)" id="g446"/></g></g><g transform="scale(1.75579)" id="g450"/><g transform="scale(1.7338)" id="g454"/><g id="g458"><g clip-path="url(#clipPath464)" id="g460"><g transform="scale(1.72798)" id="g466"/></g></g><g transform="scale(1.73225)" id="g470"/><g transform="scale(1.71701)" id="g474"/><g transform="scale(1.74028)" id="g478"/><g transform="scale(1.73114)" id="g482"/><g transform="scale(1.71036)" id="g486"/><g transform="scale(1.73701)" id="g490"/><g transform="scale(1.74835)" id="g494"/><g transform="scale(1.76927)" id="g498"/><g transform="scale(1.70401)" id="g502"/><g transform="scale(1.58369)" id="g506"/><g transform="scale(1.5865)" id="g510"/><g transform="scale(1.65445)" id="g514"/><g id="g518"><g clip-path="url(#clipPath524)" id="g520"><g transform="scale(1.65448)" id="g526"/></g></g><g transform="scale(1.69663)" id="g530"/><g transform="scale(1.6746)" id="g534"/><g transform="scale(1.58393)" id="g538"/><g transform="scale(1.80442)" id="g542"/><g transform="scale(1.7909)" id="g546"/><g transform="scale(1.68944)" id="g550"/><g transform="scale(1.82104)" id="g554"/><g transform="scale(1.82066)" id="g558"/></g></g><path id="path90-3" style="fill:#ffffff;fill-opacity:1;fill-rule:nonzero;stroke:none;stroke-width:0.133333" d="m 2159.8437,525.73511 c 0,0 24.0546,-3.10667 24.8586,0 0.804,3.10667 -13.272,7.92 -19.1986,6.8 -5.9267,-1.10667 -5.66,-6.8 -5.66,-6.8"/></svg>