<svg xmlns="http://www.w3.org/2000/svg" width="4330.09" height="2375.51" viewBox="0 0 4330.09 2375.51"><g id="Layer_2" data-name="Layer 2"><g id="Слой_1" data-name="Слой 1"><path id="BLUE_BACKGROUND" data-name="BLUE BACKGROUND" d="M4330.09,1977.09C4330.09,885.17,3362.49,0,2168.89,0S7.68,885.17,7.68,1977.09Z" fill="#c7e1e9"/><g id="SMALL_PLANE" data-name="SMALL PLANE"><path d="M3698.43,942a3.89,3.89,0,0,1-3.56,3.87l-192.64,16.25-17.66,23.47a44.57,44.57,0,0,1-35.6,17.76H3087c-21.19,0-31-26.31-15-40.17l-218.26-18.33a3.38,3.38,0,0,1-3.08-3.36,3.36,3.36,0,0,1,3.37-3.36h601.5A76.33,76.33,0,0,0,3498,925.3l34.68-23.13a16.7,16.7,0,0,1,9.27-2.81h7.57l-29.19,38.79h174.27A3.88,3.88,0,0,1,3698.43,942Z" fill="#fff"/><path d="M2850.69,941.51h0a3.37,3.37,0,0,0,3.08,3.36L3072,963.2l14.64-12.53Z" fill="#d8e9f1"/><path d="M3698.43,942h0a3.89,3.89,0,0,1-3.55,3.87l-367.87,31L3306.61,959Z" fill="#d8e9f1"/><path d="M2996.22,968.56c0,15-10.12,22.53-26.27,22.53-7,0-12.7-1.52-16.94-4.23a11.47,11.47,0,0,0,5.33,1.33c8.09,0,14.66-8.8,14.66-19.64s-6.57-19.64-14.66-19.64a11.59,11.59,0,0,0-5.33,1.33v-.06c4.22-2.68,9.86-4.17,16.94-4.17C2986.67,946,2996.22,954.3,2996.22,968.56Z" fill="#fff"/><ellipse cx="2958.33" cy="968.55" rx="14.67" ry="19.64" fill="#98c8db"/><path d="M3350,968.56c0,15-10.13,22.53-26.28,22.53-7,0-12.7-1.52-16.93-4.23a11.42,11.42,0,0,0,5.31,1.33c8.11,0,14.68-8.8,14.68-19.64s-6.57-19.64-14.68-19.64a11.54,11.54,0,0,0-5.31,1.33v-.06c4.21-2.68,9.86-4.17,16.93-4.17C3340.45,946,3350,954.3,3350,968.56Z" fill="#fff"/><ellipse cx="3312.11" cy="968.55" rx="14.67" ry="19.64" fill="#98c8db"/><path d="M3124.71,961.57h-51l13-10.9h32.17a6.32,6.32,0,0,1,5.95,4.2l1.56,4.37A1.75,1.75,0,0,1,3124.71,961.57Z" fill="#98c8db"/><rect x="3166.46" y="950.67" width="7.09" height="10.9" rx="3" fill="#98c8db"/><rect x="3186.26" y="950.67" width="7.09" height="10.9" rx="3" fill="#98c8db"/><rect x="3206.05" y="950.67" width="7.09" height="10.9" rx="3" fill="#98c8db"/><rect x="3225.85" y="950.67" width="7.09" height="10.9" rx="3" fill="#98c8db"/><rect x="3245.65" y="950.67" width="7.09" height="10.9" rx="3" fill="#98c8db"/><rect x="3265.45" y="950.67" width="7.09" height="10.9" rx="3" fill="#98c8db"/></g><g id="BIG_PLANE" data-name="BIG PLANE"><path d="M3289.07,1501l-84.5,94.2a43.7,43.7,0,0,1-29.32,14.39L1320.3,1745.82a475.36,475.36,0,0,0,38.39-163.17H3158.15a52.88,52.88,0,0,0,34.12-12.49l81.85-69.19Z" fill="#fff"/><path d="M3185.72,1608.27,1320.3,1745.81a470.39,470.39,0,0,0,30.24-97.59Z" fill="#e2eff4"/><circle cx="1602.17" cy="1800.54" r="145.16" fill="#fff"/><circle cx="1602.43" cy="1800.8" r="112.18" fill="#98c8db"/><circle cx="1602.43" cy="1800.8" r="17.73" fill="none" stroke="#fff" stroke-miterlimit="10" stroke-width="5"/><path d="M549.19,1745.67,28.1,1707.39q5.13-35,11.6-69.61,5.13-27.71,11.14-55.13h460A475.44,475.44,0,0,0,549.19,1745.67Z" fill="#fff"/><path d="M549.19,1745.67,28.1,1707.39q5.13-35,11.6-69.61L519,1648.18A470.38,470.38,0,0,0,549.19,1745.67Z" fill="#e2eff4"/><circle cx="269.33" cy="1800.54" r="145.16" fill="#fff"/><circle cx="269.07" cy="1800.8" r="112.18" fill="#98c8db"/><circle cx="269.07" cy="1800.8" r="17.73" fill="none" stroke="#fff" stroke-miterlimit="10" stroke-width="5"/><path d="M980.69,1106.22H888.87L926,561.92a8.83,8.83,0,0,1,17.51,0Z" fill="#fff"/><path d="M1773.66,1212.15l-.16,13.13-487.33,75.48a450,450,0,0,0-30.7-42.55Z" fill="#fff"/><path d="M614.44,1257.73A456.72,456.72,0,0,0,583.88,1300l-482.24-74.69-.16-13.13Z" fill="#fff"/><path d="M934.78,1102V554.23a8.8,8.8,0,0,1,8.76,7.69l37.15,544.3Z" fill="#e2eff4"/><ellipse cx="934.78" cy="1555.44" rx="424.67" ry="453.45" fill="#e2eff4"/><path d="M1319.57,1363.38c-20.38,211.24-291.53,402.2-384.8,402.2-99.13,0-364.78-190.92-384.82-402.11C617.63,1209,764.51,1102,934.77,1102S1251.87,1209,1319.57,1363.38Z" fill="#fff"/><path d="M750.08,1358.61l-.05,75.66L667.3,1461l56.33-87.9a31.42,31.42,0,0,1,26.45-14.46Z" fill="#98c8db"/><rect x="761.78" y="1358.61" width="173.85" height="75.64" fill="#98c8db"/><rect x="948.5" y="1358.61" width="172.66" height="75.64" fill="#98c8db"/><path d="M1133.68,1358.61v75.61l83.13,26.86-55.83-87.9a31.41,31.41,0,0,0-26.52-14.57Z" fill="#98c8db"/></g><g id="CONTOURS"><path d="M2173,0V1977h-8.27V0H2173Z" fill="#fff"/><path d="M4086.4,1064.19h-3835c1.57-2.77,3.16-5.52,4.74-8.28H4081.66C4083.24,1058.67,4084.83,1061.42,4086.4,1064.19Z" fill="#fff"/><path d="M552.12,665.06v1312h-8.27V673.64C546.59,670.78,549.36,667.92,552.12,665.06Z" fill="#fff"/><path d="M1092.43,262.32V1977.09h-8.28V266.71C1086.91,265.23,1089.66,263.78,1092.43,262.32Z" fill="#fff"/><path d="M1092.43,1134.42v559.76c-2.77,1.74-5.52,3.43-8.28,5.1V1131.12C1086.92,1132.18,1089.68,1133.29,1092.43,1134.42Z" fill="#d8e9f1"/><path d="M1632.72,61.33V1977.09h-8.27V63.28C1627.2,62.62,1630,62,1632.72,61.33Z" fill="#fff"/><path d="M3793.92,673.64V1976.79h-8.27V665.06C3788.41,667.92,3791.18,670.78,3793.92,673.64Z" fill="#fff"/><path d="M3253.62,266.71V1976.79h-8.27V262.32C3248.11,263.78,3250.86,265.23,3253.62,266.71Z" fill="#fff"/><path d="M2713.33,63.28V1976.79h-8.28V61.33C2707.82,62,2710.57,62.62,2713.33,63.28Z" fill="#fff"/><rect x="3245.35" y="938.14" width="8.27" height="66.41" fill="#d8e9f1"/></g><g id="FLOOR"><rect x="7.68" y="1977.09" width="4322.41" height="156.65" fill="#fff"/><line x1="2.95" y1="2136.7" x2="4306.45" y2="2136.7" fill="none" stroke="#d8e9f1" stroke-linecap="round" stroke-miterlimit="10" stroke-width="5"/><path d="M4309.41,2136.7a3,3,0,0,1-3,3H3a3,3,0,0,1,0-5.91h4303.5A3,3,0,0,1,4309.41,2136.7Z" fill="#d8e9f1"/><polygon points="2174.13 1977.09 1824.94 2133.74 1811.78 2139.65 1797.35 2139.65 1810.51 2133.74 2159.68 1977.09 2174.13 1977.09" fill="#d8e9f1"/><polygon points="552.63 1977.09 205 2133.74 191.89 2139.65 177.51 2139.65 190.62 2133.74 538.25 1977.09 552.63 1977.09" fill="#d8e9f1"/><polygon points="1093.75 1977.09 744.46 2133.74 731.29 2139.65 716.84 2139.65 730.01 2133.74 1079.28 1977.09 1093.75 1977.09" fill="#d8e9f1"/><polygon points="1633.87 1977.09 1282.11 2133.74 1268.84 2139.65 1254.31 2139.65 1267.57 2133.74 1619.34 1977.09 1633.87 1977.09" fill="#d8e9f1"/><polygon points="3811.3 1977.09 3461.14 2133.74 3447.93 2139.65 3433.45 2139.65 3446.66 2133.74 3796.81 1977.09 3811.3 1977.09" fill="#d8e9f1"/><polygon points="4327.99 1977.09 3972.97 2133.74 3959.58 2139.65 3944.95 2139.65 3958.35 2133.74 4313.35 1977.09 4327.99 1977.09" fill="#d8e9f1"/><polygon points="3253.7 1977.09 2903.43 2133.74 2890.22 2139.65 2875.74 2139.65 2888.96 2133.74 3239.2 1977.09 3253.7 1977.09" fill="#d8e9f1"/><path d="M3433.46,2139.65h14.47l-187.58,83.92a2.86,2.86,0,0,1-1.2.26,3,3,0,0,1-1.21-5.66Z" fill="#d8e9f1"/><polygon points="2714.15 1977.09 2364.06 2133.74 2350.85 2139.65 2336.37 2139.65 2349.57 2133.74 2699.66 1977.09 2714.15 1977.09" fill="#d8e9f1"/></g><g id="ESCALATOR"><path d="M4162.38,1212.15l-505.83,545.39H3562a109.79,109.79,0,0,0-109.8,109.79c0,30.31,12.29,59,32.15,78.82a109.56,109.56,0,0,0,54.76,29.76c2.16.46,4.35.86,6.56,1.18l.23,0H3343.42c-1,0-2,0-2.93,0a109.53,109.53,0,0,1-74.7-32.12c-19.87-19.88-32.16-48.51-32.16-78.83a109.8,109.8,0,0,1,109.79-109.79H3438l645.91-696.52Q4126.56,1134.19,4162.38,1212.15Z" fill="#98c8db"/><path d="M3795.28,1977.09l-1.12,1.22H3562a108.61,108.61,0,0,1-16.33-1.22c-2.21-.32-4.4-.72-6.56-1.18a109.56,109.56,0,0,1-54.76-29.76c-19.86-19.87-32.15-48.51-32.15-78.82A109.79,109.79,0,0,1,3562,1757.54h94.56l506.83-546.39a1849.32,1849.32,0,0,1,96.55,259.92Z" fill="#fff"/><path d="M4154,1194.21l-509.3,549.14h-87.58a122.8,122.8,0,0,0-122.8,122.8h0c0,50,29.88,94,72.75,113.16" fill="none" stroke="#fff" stroke-linecap="round" stroke-miterlimit="10" stroke-width="4"/></g><g id="PLANT"><path d="M4040.65,1397.42s-78.86,166.54-11.54,385.06h51.54S4120.65,1541.72,4040.65,1397.42Z" fill="#a74602"/><path d="M4052.67,1606.5c2.85,60.9,5.85,124.18,8.3,173.5a2.37,2.37,0,0,1-2.25,2.48h-.12a2.35,2.35,0,0,1-2.35-2.24c-3.85-77.46-9.05-189.33-12.87-272.34l-26.07-38.33c.5-2.1,1-4.16,1.5-6.18l24.16,35.5c-2.15-46.71-3.8-83-4.41-96.68,1.32-3.16,2.09-4.79,2.09-4.79.9,1.62,1.77,3.25,2.65,4.9,1,22.88,4.8,105.88,9,195.78l32.39-53q.49,3.76.94,7.54l-32.79,53.67A.91.91,0,0,1,4052.67,1606.5Z" fill="#ffc200"/><path d="M3997.69,1782.48s-44.41-58.53-23.48-181.27c0,0,72.07,74.64,61.31,181.27Z" fill="none" stroke="#ffc200" stroke-linecap="round" stroke-miterlimit="10" stroke-width="4"/><path d="M4143.64,1528.15s15.3,140.38-44.29,254.33H4056S4058.93,1634.26,4143.64,1528.15Z" fill="#f5bbbb"/><path d="M4102.09,1782.48s45.85-47,50.55-87.81c0,0-72,32.68-72,87.81Z" fill="#a74602"/><polygon points="4091.65 1977.77 4006.67 1977.77 3993.85 1780.12 4104.48 1780.12 4091.65 1977.77" fill="#fff"/><circle cx="4107.34" cy="1535.99" r="7.84" fill="none" stroke="#ffc200" stroke-linecap="round" stroke-miterlimit="10" stroke-width="4"/><circle cx="3960.76" cy="1759.5" r="7.84" fill="none" stroke="#ffc200" stroke-linecap="round" stroke-miterlimit="10" stroke-width="4"/></g><g id="MAN"><line id="GROUND" x1="2457.33" y1="2373.01" x2="3515.61" y2="2373.01" fill="none" stroke="#d8e9f1" stroke-linecap="round" stroke-miterlimit="10" stroke-width="5"/><g id="SUITCASE"><path d="M3407.35,2327.91H3187.11l-115.55-473.68h248.29a57.52,57.52,0,0,1,55.88,43.89l87.49,358.64A57.5,57.5,0,0,1,3407.35,2327.91Z" fill="#f3b304"/><path d="M3075.48,1854.23h248.3a57.52,57.52,0,0,1,55.87,43.89l87.5,358.64" fill="none" stroke="#fff" stroke-linecap="round" stroke-miterlimit="10" stroke-width="5"/><path d="M3127.58,1854.76a58.21,58.21,0,0,1,56.56,44.41l87.26,360.44a58.21,58.21,0,0,1-56.56,72" fill="none" stroke="#fff" stroke-linecap="round" stroke-miterlimit="10" stroke-width="5"/><line x1="3223.37" y1="1899.17" x2="3310.63" y2="2259.61" fill="none" stroke="#fff" stroke-linecap="round" stroke-miterlimit="10" stroke-width="5"/><line x1="3254.1" y1="1899.17" x2="3341.36" y2="2259.61" fill="none" stroke="#fff" stroke-linecap="round" stroke-miterlimit="10" stroke-width="5"/><line x1="3284.83" y1="1899.17" x2="3372.09" y2="2259.61" fill="none" stroke="#fff" stroke-linecap="round" stroke-miterlimit="10" stroke-width="5"/><line x1="3315.56" y1="1899.17" x2="3402.82" y2="2259.61" fill="none" stroke="#fff" stroke-linecap="round" stroke-miterlimit="10" stroke-width="5"/><line x1="3346.29" y1="1899.17" x2="3433.55" y2="2259.61" fill="none" stroke="#fff" stroke-linecap="round" stroke-miterlimit="10" stroke-width="5"/><circle cx="3216.46" cy="2353.17" r="13.22" fill="none" stroke="#59221d" stroke-linecap="round" stroke-linejoin="round" stroke-width="5"/><circle cx="3390.08" cy="2353.17" r="13.22" fill="none" stroke="#59221d" stroke-linecap="round" stroke-linejoin="round" stroke-width="5"/><path d="M3185.68,2325,3046.26,1750.8a26.68,26.68,0,0,1,25.93-33h42.28a32.58,32.58,0,0,1,31.68,25L3171,1847.34" fill="none" stroke="#59221d" stroke-linecap="round" stroke-linejoin="round" stroke-width="5"/></g><g id="SHOES"><path id="RIGHT" d="M3044.24,2369.12h-178.8l46.42-62.87s46.19,26.22,145.61,22.57h.32l4.29,17.62A18.36,18.36,0,0,1,3044.24,2369.12Z" fill="#59221d"/><path id="LEFT" d="M2624.4,2306.33c3.31,1.79,51.44,27.2,158.39,22.55v25.19c0,7.46-6.31,13.5-14.1,13.5H2584.4Z" fill="#59221d"/></g><g id="LEGS"><path d="M3054.67,2329.12l-.31,0c-94.82,3.48-138.87-21.54-138.87-21.54l-135.7-490.25v511.53c-102.41,4.65-149.66-20.76-152.82-22.55V1529.17h232.81l189.64,778.43Z" fill="#fff" stroke="#59221d" stroke-linejoin="round" stroke-width="5"/><polyline points="2779.8 1817.35 2779.8 1658.03 2809.07 1649.38" fill="none" stroke="#59221d" stroke-linecap="round" stroke-linejoin="round" stroke-width="5"/></g><g id="HANDS"><g id="RIGHT-2" data-name="RIGHT"><path d="M3120.07,1752.67l-49.61,1.38a10.61,10.61,0,0,1-10.12-6.59l-3.4-8.28-26.19-.35a17.09,17.09,0,0,1-14.91-9.19l-76-157.83-1.45-3v0c-4.54-13.59,14-31.64,38.93-40s48.88-4.16,53.45,9.44l50.7,144.07,12.21.27a25.55,25.55,0,0,1,23.69,16.74l13.58,37.15A12.1,12.1,0,0,1,3120.07,1752.67Z" fill="#a74602"/><line x1="3068.7" y1="1682.28" x2="3093.73" y2="1682.55" fill="none" stroke="#59221d" stroke-linecap="round" stroke-miterlimit="10" stroke-width="4"/><path d="M3105.31,1750.51a12.09,12.09,0,0,0,10.93-16.23l-7.51-20.54" fill="none" stroke="#59221d" stroke-linecap="round" stroke-miterlimit="10" stroke-width="4"/><path d="M3088.92,1750.82a12.09,12.09,0,0,0,10.93-16.23l-7.51-20.54" fill="none" stroke="#59221d" stroke-linecap="round" stroke-miterlimit="10" stroke-width="4"/><path d="M3073.14,1751.33a12.08,12.08,0,0,0,10.93-16.23l-7.51-20.54" fill="none" stroke="#59221d" stroke-linecap="round" stroke-miterlimit="10" stroke-width="4"/><path d="M3058.24,1737.37v-5c0-8.5-8.2-15.4-16.7-15.4l-4.52-12" fill="none" stroke="#59221d" stroke-linecap="round" stroke-miterlimit="10" stroke-width="4"/></g><g id="LEFT-2" data-name="LEFT"><rect x="2421.35" y="1694.61" width="151.95" height="59.7" rx="6.26" transform="matrix(0.99, 0.15, -0.15, 0.99, 282.86, -350.76)" fill="#fff"/><path d="M2434.45,1684.86l4.31.65-8.84,59-4.31-.65a8.12,8.12,0,0,1-6.6-9.42l6.37-42.55A8.14,8.14,0,0,1,2434.45,1684.86Z" fill="#f3b304"/><path d="M2575.64,1714.44l-6.37,42.55a8.13,8.13,0,0,1-9.08,7.07l-3.72-.56,8.84-59,3.72.56A8.14,8.14,0,0,1,2575.64,1714.44Z" fill="#f3b304"/><path d="M2607.45,1548.58v0l-67,210.35c-2.49,7.8-10.6,13-19.5,12.45l-48-2.82a9.66,9.66,0,0,1-7.73-4.48L2450,1740.82a19.82,19.82,0,0,1,.47-21.44l24.44-36.22,36.69-154.23c7.52-10.3,29.39-15.53,52.58-11.61C2591.15,1521.88,2610.1,1534.73,2607.45,1548.58Z" fill="#a74602"/><line x1="2467.21" y1="1764.85" x2="2469.34" y2="1732.72" fill="none" stroke="#59221d" stroke-linecap="round" stroke-miterlimit="10" stroke-width="4"/><line x1="2485.59" y1="1767.56" x2="2487.72" y2="1734.21" fill="none" stroke="#59221d" stroke-linecap="round" stroke-miterlimit="10" stroke-width="4"/><line x1="2504.65" y1="1769.11" x2="2506.78" y2="1735.77" fill="none" stroke="#59221d" stroke-linecap="round" stroke-miterlimit="10" stroke-width="4"/><line x1="2521.42" y1="1769.54" x2="2523.55" y2="1736.19" fill="none" stroke="#59221d" stroke-linecap="round" stroke-miterlimit="10" stroke-width="4"/></g></g><g id="HEAD"><polygon id="NECK" points="2705.14 1226.85 2705.14 1172.06 2766.03 1168.79 2794.93 1226.85 2705.14 1226.85" fill="#a74602"/><g id="FACE"><path d="M2694.92,1156l-5.71-3.11a3.79,3.79,0,0,1-1.52-5.14l15.5-28.34a12.9,12.9,0,0,1,10-6.7c6.1-.68,9.1,2.38,9.1,2.38l14.88,11.85a14.17,14.17,0,0,1,4.29,16.48l-5.58,13.63a12.18,12.18,0,0,1-14.7,6.86Z" fill="#a74602"/><line x1="2720.18" y1="1131.56" x2="2711.01" y2="1127.74" fill="none" stroke="#59221d" stroke-linecap="round" stroke-miterlimit="10" stroke-width="4"/><ellipse cx="2710.9" cy="1140.77" rx="4.98" ry="3.03" transform="translate(589.52 3177.95) rotate(-66.66)" fill="#59221d"/></g><g id="EAR"><path d="M2767.71,1177.35a14.91,14.91,0,0,1-14,1.14l-7.8-3.36" fill="none" stroke="#59221d" stroke-linecap="round" stroke-miterlimit="10" stroke-width="4"/><path d="M2754.91,1176.13l-7.79-3.36,6.91-20.91a8,8,0,0,1,11.32-4.62l1.66.85a14.94,14.94,0,0,1,7.79,19.64l-.25.6A15,15,0,0,1,2754.91,1176.13Z" fill="#a74602"/><path d="M2756.37,1160.31a9.49,9.49,0,0,1,12.43-4.85" fill="none" stroke="#59221d" stroke-linecap="round" stroke-miterlimit="10" stroke-width="4"/></g><path id="HAIR" d="M2765.35,1147.24a8,8,0,0,0-11.32,4.62l-9.17,27.88c-4.28,5.45-13.16,7.14-20.4,6.84l-21.33-.55a14.17,14.17,0,0,1-12.64-19.76l4.44-10.3,26.22,7.91a12.18,12.18,0,0,0,14.7-6.87l5.58-13.62a14.17,14.17,0,0,0-4.29-16.48l-14.88-11.85a13,13,0,0,0-15.54.2h0c-7.67-15.88,8.46-20.35,15-17.08,4.75,2.38,45.35,26.64,47.79,33.75,1.45,4.19.57,10.46-1.15,16.85Z" fill="#f3b304"/></g><g id="SHIRT"><path d="M2608.75,1547.86c1.86-13.58-18.07-26.06-44.59-30.54-23.2-3.92-46.25,1.31-53.78,11.6l49.6-229.61a92.7,92.7,0,0,1,90.45-72.46H2853a81.25,81.25,0,0,1,75.14,50.36l102.22,259.69c-5.63-12.55-28.81-16.24-52.94-8.13-24.78,8.33-43.23,26.19-39,39.76l-83.53-182.66-2.73,62.74,22.07,119.8s2.64,60-79.72,62.46C2707.1,1633.47,2662,1571,2662,1571l-39,51V1477.59Z" fill="#f5bbbb"/><path d="M2707.39,1199.54h74.17a9.52,9.52,0,0,1,8.52,5.3l10.83,22h-114.6l12.83-22.51A9.49,9.49,0,0,1,2707.39,1199.54Z" fill="#f5bbbb"/><path d="M2936.36,1569.79c-4.48-14.37,13.76-33.3,40-42.12,25.58-8.59,50.13-4.69,56.1,8.62l-14.38-35.58c-6.13-13.66-30-19-56.29-10.16-27,9.06-47,28.49-42.44,43.25Z" fill="none" stroke="#fff" stroke-linejoin="round" stroke-width="4"/><path d="M2599.26,1244s47.18,6.22,56.29,66.41h203.88" fill="none" stroke="#fff" stroke-linecap="round" stroke-linejoin="round" stroke-width="4"/><line x1="2611.11" y1="1544.06" x2="2655.69" y2="1310.36" fill="none" stroke="#fff" stroke-linecap="round" stroke-linejoin="round" stroke-width="4"/><line x1="2854.92" y1="1392.48" x2="2864" y2="1298.14" fill="none" stroke="#fff" stroke-linecap="round" stroke-linejoin="round" stroke-width="4"/><path d="M2616.43,1520.76l-6.54,27.83c2.66-13.84-18.74-26.72-45.73-31.28-26.09-4.41-51.68,2.77-55.9,15.69l6.71-29.83c2.83-13.89,29.51-21.44,56.61-16.86S2619.26,1506.88,2616.43,1520.76Z" fill="none" stroke="#fff" stroke-linejoin="round" stroke-width="4"/><line x1="2799.61" y1="1225.54" x2="2686.31" y2="1225.54" fill="none" stroke="#fff" stroke-linecap="round" stroke-miterlimit="10" stroke-width="4"/></g></g><g id="SEAT"><path d="M1522.28,1815.21H1237.19a74.06,74.06,0,0,0,69.57-48.66l64.76-180.11,67.58,176a74.07,74.07,0,0,0,69.56,48.66h10.88Z" fill="#a74602" stroke="#a74602" stroke-linecap="round" stroke-linejoin="round" stroke-width="7"/><path d="M2269.24,1811.05H1508.67a74.06,74.06,0,0,1-69.57-48.66l-65.48-179.22h644a34.91,34.91,0,0,1,32.79,22.94l57.1,156.28a73.94,73.94,0,0,0,17.29,27.07,66.51,66.51,0,0,0,31.66,8h99a13.74,13.74,0,0,1,13.75,13.59Z" fill="#f3b304"/><path d="M1369.77,1583l-67.35,184.35a66.52,66.52,0,0,1-62.49,43.7h-91.75a13.75,13.75,0,0,1,13.75-13.59h64.41a66.51,66.51,0,0,0,62.49-43.7l56-153.33a26.52,26.52,0,0,1,24.92-17.43Z" fill="#f3b304"/><line x1="2267.18" y1="1815.21" x2="1496.86" y2="1815.21" fill="none" stroke="#a74602" stroke-linecap="round" stroke-miterlimit="10" stroke-width="7"/><path d="M1845.9,1815.21a74.06,74.06,0,0,1-69.57-48.65l-65.48-179.23" fill="none" stroke="#a74602" stroke-linecap="round" stroke-miterlimit="10" stroke-width="7"/><path d="M2014.52,1815.21a74.08,74.08,0,0,1-69.58-48.65l-65.47-179.23" fill="none" stroke="#a74602" stroke-linecap="round" stroke-miterlimit="10" stroke-width="7"/><path d="M1677.29,1815.21a74.08,74.08,0,0,1-69.58-48.65l-65.47-179.23" fill="none" stroke="#a74602" stroke-linecap="round" stroke-miterlimit="10" stroke-width="7"/><path d="M1222,2009.29c0-103.53,66.32-187.46,148.14-187.46s148.15,83.93,148.15,187.46" fill="none" stroke="#a74602" stroke-miterlimit="10" stroke-width="7"/><path d="M1944.56,2009.29c0-103.53,66.33-187.46,148.15-187.46s148.15,83.93,148.15,187.46" fill="none" stroke="#a74602" stroke-miterlimit="10" stroke-width="7"/></g><g id="WOMAN"><path id="RIGHT_HAND" data-name="RIGHT HAND" d="M1689.79,1669.4l-46.65,10.73-6.3-29.37,9.21-9.42a24.46,24.46,0,0,0,4.3-28.19l-15.23-29.87,25.58-.15Z" fill="#a74602"/><g id="T-SHIRT"><path d="M1616,1527.73a37,37,0,0,1,34.56,23.8l10.53,31.6-25.93.15,15.23,29.87a24.46,24.46,0,0,1-4.3,28.19l-9.21,9.42,6.3,29.37L1502.86,1711,1448,1583.56h-1.28l-1.76-13.23a37.7,37.7,0,0,1,36.77-42.61Z" fill="#f5bbbb"/><path d="M1646.05,1641.34a24.44,24.44,0,0,0,4.3-28.18l-24.26-47.6" fill="none" stroke="#fff" stroke-linecap="round" stroke-miterlimit="10" stroke-width="4"/></g><g id="LEGS-2" data-name="LEGS"><g id="PANTS"><path d="M1872.06,1955.11h-97.67l-8.83-26.81-80.65-245.13c-2.86-8.77,6.22-17.77,15.43-17.77l38.84-1.28a52.37,52.37,0,0,1,49.68,35.8l74.45,228.38Z" fill="#59221d"/><path d="M1747.87,1730.35l-72,198-9.76,26.81h-97.9l9.2-26.81,42.2-122.84h-53.33c-33.49,0-87-24.42-63.33-95.75l198.12-45.4A49.61,49.61,0,0,1,1747.87,1730.35Z" fill="#59221d"/><line x1="1628.21" y1="1772.56" x2="1612.44" y2="1818.89" fill="none" stroke="#fff" stroke-linecap="round" stroke-miterlimit="10" stroke-width="4"/><path d="M1666.89,1961l82.4-233.49a49.61,49.61,0,0,0-46.81-66h0" fill="none" stroke="#fff" stroke-linecap="round" stroke-miterlimit="10" stroke-width="4"/></g><g id="LEGS-3" data-name="LEGS"><polygon points="1675.86 1928.3 1666.1 1955.11 1568.2 1955.11 1577.4 1928.3 1675.86 1928.3" fill="#a74602"/><polygon points="1872.06 1955.11 1774.38 1955.11 1765.56 1928.3 1863.31 1928.3 1872.06 1955.11" fill="#a74602"/></g><g id="SHOES-2" data-name="SHOES"><path d="M1707.44,2012h-84a7.41,7.41,0,0,1-4.75-1.72l-13.3-11.12a2.8,2.8,0,0,0-4.51,1.43l-2.16,8.76a3.53,3.53,0,0,1-3.45,2.65h-33.89a3.49,3.49,0,0,1-3.48-4.11l10.33-52.8h98.3Z" fill="#f5bbbb"/><path d="M1915.55,2012h-84a7.39,7.39,0,0,1-4.75-1.72l-13.3-11.12a2.81,2.81,0,0,0-4.52,1.43l-2.15,8.76a3.54,3.54,0,0,1-3.45,2.65h-36.44a3.49,3.49,0,0,1-3.49-4.11l10.33-52.8h98.3Z" fill="#f5bbbb"/></g></g><g id="HEAD-2" data-name="HEAD"><path id="HAIR-2" data-name="HAIR" d="M1587.79,1524.78c-11.66,6-25.9,3.62-37.93-5l-.22.12c-28.39,14.71-60.41,8-71.53-13.43s2.89-50.74,31.26-65.47a72.93,72.93,0,0,1,26.3-8,14.55,14.55,0,1,1,28.41-4.41,14.34,14.34,0,0,1-1.6,6.61c14,2.21,28.07,12.76,36.4,28.9C1611.24,1488.09,1606.28,1515.23,1587.79,1524.78Z" fill="#59221d"/><g id="NECK-2" data-name="NECK"><polygon points="1512.45 1527.74 1531.86 1484.63 1567.76 1484.63 1567.76 1556.1 1512.45 1527.74" fill="#a74602"/><path d="M1567.76,1484.63v27.5a26.84,26.84,0,0,1-29.22-18.87l-2.6-8.63Z" fill="#59221d"/></g><g id="HEAD-3" data-name="HEAD"><path d="M1582.16,1460.6v22.34a17.29,17.29,0,0,1-17.3,17.3h-8.48a22.66,22.66,0,0,1-21.08-14.38h-8a11.45,11.45,0,0,1,0-22.89h1.07a10.7,10.7,0,0,1,5.39,1.45v-.05l29.56-22.73a19,19,0,0,1,18.86,19Z" fill="#a74602"/><g id="FACE-2" data-name="FACE"><path d="M1532.31,1476.12a6,6,0,0,0-6-6" fill="none" stroke="#59221d" stroke-linecap="round" stroke-miterlimit="10" stroke-width="3"/><path d="M1582.7,1460.71s-6.57-2.53-11.83,2.34c-3.62,3.36-4.59,12.54-1.83,16.39" fill="none" stroke="#59221d" stroke-linecap="round" stroke-miterlimit="10" stroke-width="3"/><ellipse cx="1555.86" cy="1471.2" rx="2.06" ry="2.81" fill="#59221d"/><ellipse cx="1575.06" cy="1471.2" rx="2.06" ry="2.81" fill="#59221d"/><path d="M1569.55,1488.69s-6.56,1.73-8.61-3.53" fill="none" stroke="#59221d" stroke-linecap="round" stroke-miterlimit="10" stroke-width="3"/><path d="M1546.36,1462.82s5.81-4.5,13.16-3.08" fill="none" stroke="#59221d" stroke-linecap="round" stroke-miterlimit="10" stroke-width="3"/></g></g></g><g id="LEFT_HAND" data-name="LEFT HAND"><path d="M1742.72,1667.53a6.21,6.21,0,0,1-6.21,6.2h-75.76l-124.52,37.34a47,47,0,0,1-59-30.88l-30.12-96.62,79.31-.44,17.83,52.89,122.91-1.49c13.25,0,26.31,4.39,38.14,10.34l34,17.12a6.21,6.21,0,0,1,3.41,5.54Z" fill="#a74602"/><line x1="1534" y1="1637.37" x2="1569.13" y2="1637.83" fill="none" stroke="#59221d" stroke-linecap="round" stroke-miterlimit="10" stroke-width="3"/><path d="M1650.9,1663.75a12.27,12.27,0,0,0,12.27,12.27" fill="none" stroke="#59221d" stroke-linecap="round" stroke-miterlimit="10" stroke-width="3"/><path d="M1700.88,1656.28l25.37,10.39a7.52,7.52,0,0,1,4.67,6.95" fill="none" stroke="#59221d" stroke-linecap="round" stroke-miterlimit="10" stroke-width="3"/><path d="M1682.88,1658.54l19.84,8.13a7.51,7.51,0,0,1,4.66,6.95" fill="none" stroke="#59221d" stroke-linecap="round" stroke-miterlimit="10" stroke-width="3"/></g></g><g id="SIGNAGE"><path d="M1930.88,845.49h-647a21.51,21.51,0,0,1-20-13.59L1127.24,486.75a21.5,21.5,0,0,1,20-29.41h647a21.52,21.52,0,0,1,20,13.59l136.61,345.15A21.5,21.5,0,0,1,1930.88,845.49Z" fill="#fff"/><line x1="1429.05" y1="841.8" x2="1277.98" y2="460.13" fill="none" stroke="#d8e9f1" stroke-linecap="round" stroke-miterlimit="10" stroke-width="5"/><path d="M1134.51,437.25h676.27a18.07,18.07,0,0,1,16.8,11.41L1976.7,825.4" fill="none" stroke="#a74602" stroke-linecap="round" stroke-miterlimit="10" stroke-width="5"/><line x1="1483.38" y1="437.25" x2="1483.38" y2="107.41" fill="none" stroke="#a74602" stroke-linecap="round" stroke-miterlimit="10" stroke-width="5"/><line x1="1168.35" y1="586.07" x2="1857.51" y2="586.07" fill="none" stroke="#d8e9f1" stroke-linecap="round" stroke-miterlimit="10" stroke-width="5"/><line x1="1219.17" y1="715.29" x2="1909.51" y2="715.29" fill="none" stroke="#d8e9f1" stroke-linecap="round" stroke-miterlimit="10" stroke-width="5"/><line x1="1258" y1="525.78" x2="1194.76" y2="525.78" fill="none" stroke="#f3b304" stroke-linecap="round" stroke-miterlimit="10" stroke-width="5"/><line x1="1603.15" y1="505.32" x2="1344.08" y2="505.32" fill="none" stroke="#f3b304" stroke-linecap="round" stroke-miterlimit="10" stroke-width="5"/><line x1="1650.14" y1="625.84" x2="1391.07" y2="625.84" fill="none" stroke="#f3b304" stroke-linecap="round" stroke-miterlimit="10" stroke-width="5"/><line x1="1660.78" y1="656.57" x2="1401.71" y2="656.57" fill="none" stroke="#f3b304" stroke-linecap="round" stroke-miterlimit="10" stroke-width="5"/><line x1="1754.14" y1="753.58" x2="1435.98" y2="753.58" fill="none" stroke="#f3b304" stroke-linecap="round" stroke-miterlimit="10" stroke-width="5"/><line x1="1703.33" y1="784.31" x2="1446.62" y2="784.31" fill="none" stroke="#f3b304" stroke-linecap="round" stroke-miterlimit="10" stroke-width="5"/><line x1="1700.74" y1="536.04" x2="1355.9" y2="536.04" fill="none" stroke="#f3b304" stroke-linecap="round" stroke-miterlimit="10" stroke-width="5"/><polyline points="1225.02 550.56 1189.03 524.98 1216 499.41" fill="none" stroke="#f3b304" stroke-linecap="round" stroke-linejoin="round" stroke-width="5"/><line x1="1305.23" y1="652.21" x2="1241.98" y2="652.21" fill="none" stroke="#f3b304" stroke-linecap="round" stroke-miterlimit="10" stroke-width="5"/><polyline points="1272.24 676.99 1236.25 651.41 1263.23 625.84" fill="none" stroke="#f3b304" stroke-linecap="round" stroke-linejoin="round" stroke-width="5"/><line x1="1352.7" y1="779.95" x2="1289.45" y2="779.95" fill="none" stroke="#f3b304" stroke-linecap="round" stroke-miterlimit="10" stroke-width="5"/><polyline points="1319.72 804.73 1283.72 779.16 1310.7 753.58" fill="none" stroke="#f3b304" stroke-linecap="round" stroke-linejoin="round" stroke-width="5"/><line x1="1746.79" y1="505.32" x2="1780.88" y2="505.32" fill="none" stroke="#f3b304" stroke-linecap="round" stroke-miterlimit="10" stroke-width="5"/><line x1="1758.6" y1="536.04" x2="1792.7" y2="536.04" fill="none" stroke="#f3b304" stroke-linecap="round" stroke-miterlimit="10" stroke-width="5"/><line x1="1785.61" y1="625.84" x2="1819.7" y2="625.84" fill="none" stroke="#f3b304" stroke-linecap="round" stroke-miterlimit="10" stroke-width="5"/><line x1="1797.42" y1="656.57" x2="1831.52" y2="656.57" fill="none" stroke="#f3b304" stroke-linecap="round" stroke-miterlimit="10" stroke-width="5"/><line x1="1829.16" y1="753.58" x2="1863.25" y2="753.58" fill="none" stroke="#f3b304" stroke-linecap="round" stroke-miterlimit="10" stroke-width="5"/><line x1="1840.98" y1="784.31" x2="1875.07" y2="784.31" fill="none" stroke="#f3b304" stroke-linecap="round" stroke-miterlimit="10" stroke-width="5"/><path d="M2396,846.67h647a21.51,21.51,0,0,0,20-13.59l136.62-345.15a21.5,21.5,0,0,0-20-29.41h-647a21.5,21.5,0,0,0-20,13.59L2376,817.26A21.5,21.5,0,0,0,2396,846.67Z" fill="#fff"/><line x1="2897.83" y1="842.98" x2="3048.9" y2="461.31" fill="none" stroke="#d8e9f1" stroke-linecap="round" stroke-miterlimit="10" stroke-width="5"/><path d="M3192.36,438.43H2516.09a18.06,18.06,0,0,0-16.79,11.41L2350.18,826.58" fill="none" stroke="#a74602" stroke-linecap="round" stroke-miterlimit="10" stroke-width="5"/><line x1="2843.49" y1="438.43" x2="2843.49" y2="99.14" fill="none" stroke="#a74602" stroke-linecap="round" stroke-miterlimit="10" stroke-width="5"/><line x1="3158.52" y1="587.25" x2="2469.37" y2="587.25" fill="none" stroke="#d8e9f1" stroke-linecap="round" stroke-miterlimit="10" stroke-width="5"/><line x1="3107.71" y1="716.47" x2="2417.37" y2="716.47" fill="none" stroke="#d8e9f1" stroke-linecap="round" stroke-miterlimit="10" stroke-width="5"/><line x1="3068.87" y1="526.96" x2="3132.12" y2="526.96" fill="none" stroke="#f3b304" stroke-linecap="round" stroke-miterlimit="10" stroke-width="5"/><line x1="2945.92" y1="506.5" x2="2982.79" y2="506.5" fill="none" stroke="#f3b304" stroke-linecap="round" stroke-miterlimit="10" stroke-width="5"/><line x1="2499.46" y1="627.02" x2="2830.56" y2="627.02" fill="none" stroke="#f3b304" stroke-linecap="round" stroke-miterlimit="10" stroke-width="5"/><line x1="2488.82" y1="657.75" x2="2637.51" y2="657.75" fill="none" stroke="#f3b304" stroke-linecap="round" stroke-miterlimit="10" stroke-width="5"/><line x1="2445.09" y1="754.76" x2="2763.25" y2="754.76" fill="none" stroke="#f3b304" stroke-linecap="round" stroke-miterlimit="10" stroke-width="5"/><line x1="2436.82" y1="785.49" x2="2693.53" y2="785.49" fill="none" stroke="#f3b304" stroke-linecap="round" stroke-miterlimit="10" stroke-width="5"/><line x1="2532.99" y1="537.22" x2="2830.56" y2="537.22" fill="none" stroke="#f3b304" stroke-linecap="round" stroke-miterlimit="10" stroke-width="5"/><polyline points="3101.85 551.74 3137.84 526.16 3110.87 500.59" fill="none" stroke="#f3b304" stroke-linecap="round" stroke-linejoin="round" stroke-width="5"/><line x1="3021.65" y1="653.39" x2="3084.89" y2="653.39" fill="none" stroke="#f3b304" stroke-linecap="round" stroke-miterlimit="10" stroke-width="5"/><polyline points="3054.63 678.17 3090.62 652.6 3063.65 627.02" fill="none" stroke="#f3b304" stroke-linecap="round" stroke-linejoin="round" stroke-width="5"/><line x1="2974.17" y1="781.13" x2="3037.42" y2="781.13" fill="none" stroke="#f3b304" stroke-linecap="round" stroke-miterlimit="10" stroke-width="5"/><polyline points="3007.15 805.91 3043.15 780.34 3016.17 754.76" fill="none" stroke="#f3b304" stroke-linecap="round" stroke-linejoin="round" stroke-width="5"/><line x1="2884.55" y1="506.5" x2="2545.99" y2="506.5" fill="none" stroke="#f3b304" stroke-linecap="round" stroke-miterlimit="10" stroke-width="5"/><line x1="2969.79" y1="537.22" x2="2936.88" y2="537.22" fill="none" stroke="#f3b304" stroke-linecap="round" stroke-miterlimit="10" stroke-width="5"/><line x1="2935.8" y1="627.02" x2="2901.71" y2="627.02" fill="none" stroke="#f3b304" stroke-linecap="round" stroke-miterlimit="10" stroke-width="5"/><line x1="2923.98" y1="657.75" x2="2889.89" y2="657.75" fill="none" stroke="#f3b304" stroke-linecap="round" stroke-miterlimit="10" stroke-width="5"/><line x1="2890.89" y1="754.76" x2="2856.8" y2="754.76" fill="none" stroke="#f3b304" stroke-linecap="round" stroke-miterlimit="10" stroke-width="5"/><line x1="2879.07" y1="785.49" x2="2844.98" y2="785.49" fill="none" stroke="#f3b304" stroke-linecap="round" stroke-miterlimit="10" stroke-width="5"/></g></g></g></svg>