<svg xml:space="preserve" id="svg2" version="1.1" sodipodi:docname="trial.svg" inkscape:version="1.2.2 (b0a8486541, 2022-12-01)" xmlns:inkscape="http://www.inkscape.org/namespaces/inkscape" xmlns:sodipodi="http://sodipodi.sourceforge.net/DTD/sodipodi-0.dtd" xmlns="http://www.w3.org/2000/svg" xmlns:svg="http://www.w3.org/2000/svg" xmlns:rdf="http://www.w3.org/1999/02/22-rdf-syntax-ns#" xmlns:cc="http://creativecommons.org/ns#" xmlns:dc="http://purl.org/dc/elements/1.1/" viewBox="430.07 354.63 1247.3 1275.52"><sodipodi:namedview id="namedview281" pagecolor="#ffffff" bordercolor="#000000" borderopacity="0.25" inkscape:showpageshadow="2" inkscape:pageopacity="0.0" inkscape:pagecheckerboard="0" inkscape:deskcolor="#d1d1d1" showgrid="false" inkscape:zoom="0.61291437" inkscape:cx="529.43774" inkscape:cy="610.19943" inkscape:window-width="1920" inkscape:window-height="1131" inkscape:window-x="0" inkscape:window-y="0" inkscape:window-maximized="1" inkscape:current-layer="svg2"/><metadata id="metadata8"><rdf:RDF><cc:Work rdf:about=""><dc:format>image/svg+xml</dc:format><dc:type rdf:resource="http://purl.org/dc/dcmitype/StillImage"/></cc:Work></rdf:RDF></metadata><defs id="defs6"><clipPath id="clipPath38" clipPathUnits="userSpaceOnUse"><path id="path36" d="m 7523.88,9895.93 -380.64,139.27 -1341.75,952.4 -110.4,-175.6 c 0,0 761.05,-918.27 1157.06,-1171.66 0,0 247.46,-230.66 537.89,-260.2 290.44,-29.54 137.84,515.79 137.84,515.79 z"/></clipPath><clipPath id="clipPath54" clipPathUnits="userSpaceOnUse"><path id="path52" d="m 8085.91,5419.24 c 14.13,-598.68 313.88,-2958.04 313.88,-2958.04 l 102.57,-15.3 85.95,71 352.29,2796.11 z"/></clipPath><clipPath id="clipPath68" clipPathUnits="userSpaceOnUse"><path id="path66" d="M 8211.07,7425.91 7974.04,5233.99 c 0,0 638.34,-302.97 995.03,-169.3 0,0 931.08,37.38 1015.07,150.37 0,0 -49.89,1805.92 -303.38,2273.01 0,0 -1196.73,-129.24 -1469.69,-62.16 z"/></clipPath><clipPath id="clipPath86" clipPathUnits="userSpaceOnUse"><path id="path84" d="m 8642.86,10661.3 c 0,0 -281.77,-589.1 50,-623.6 331.77,-34.6 592.73,301.4 519.13,552.2 -73.6,250.7 -410.22,465.5 -569.13,71.4 z"/></clipPath><clipPath id="clipPath120" clipPathUnits="userSpaceOnUse"><path id="path118" d="m 8755.34,9895.94 -1414.31,115.96 -118.24,-669.12 c 0,0 871.41,-456.91 1036.74,-385.36 165.33,71.55 495.81,938.52 495.81,938.52 z"/></clipPath><clipPath id="clipPath132" clipPathUnits="userSpaceOnUse"><path id="path130" d="m 8647.79,3908.9 c 0,0 463.54,1485.72 764.41,1698.03 300.86,212.32 1771.5,386.07 1967.6,256.23 196.1,-129.84 1145.4,-1448.12 814.2,-1546.77 C 11862.8,4217.73 8637.4,3300.7 8647.79,3908.9 Z"/></clipPath><clipPath id="clipPath146" clipPathUnits="userSpaceOnUse"><path id="path144" d="m 10356.5,6292.43 c 0,0 -44.1,1316.49 -71.7,1436.85 -64.3,279.55 -146.9,591.45 -146.9,591.45 l -465.29,-129.26 c 0,0 132.52,-450.86 169.11,-553.29 31.44,-88.04 209.58,-1019.08 258.98,-1278.8 -22.9,-61.17 -67.5,-191.9 -52.7,-247.67 19.7,-74.06 201.4,-107.65 201.4,-107.65 0,0 112.9,0 144.9,39.29 32,39.29 -37.8,249.08 -37.8,249.08 z"/></clipPath><clipPath id="clipPath164" clipPathUnits="userSpaceOnUse"><path id="path162" d="m 16843.4,5161.66 c 129.8,-584.63 850,-2686.76 850,-2686.76 l 103.6,4.9 70.5,86.3 -195.5,2811.39 z"/></clipPath><clipPath id="clipPath184" clipPathUnits="userSpaceOnUse"><path id="path182" d="m 15840,5261.62 c 14.1,-598.68 313.9,-2800.42 313.9,-2800.42 l 102.6,-15.3 85.9,71 352.3,2796.11 z"/></clipPath><clipPath id="clipPath226" clipPathUnits="userSpaceOnUse"><path id="path224" d="m 16182.3,10609.6 c 0,0 -182.5,-626.91 150.5,-607.2 333,19.7 536,393.6 422.7,629.1 -113.3,235.5 -480.4,392.9 -573.2,-21.9 z"/></clipPath><clipPath id="clipPath292" clipPathUnits="userSpaceOnUse"><path id="path290" d="m 17869.7,8315.51 c 0,0 106.7,-658.67 11.5,-753.64 -211.8,-211.47 -1716.9,98.77 -1716.9,98.77 l -30.8,205.13 c 0,0 1071.5,119.04 1231.6,81.05 l -46.2,213.73 c 0,0 373.6,105.59 550.8,154.96 z"/></clipPath><clipPath id="clipPath324" clipPathUnits="userSpaceOnUse"><path id="path322" d="m 20896.3,2582.4 h -2185 c -123.8,0 -224.1,100.4 -224.1,224.1 v 3338.42 c 0,123.76 100.3,224.09 224.1,224.09 h 2185 c 123.7,0 224,-100.33 224,-224.09 V 2806.5 c 0,-123.7 -100.3,-224.1 -224,-224.1 z"/></clipPath><clipPath id="clipPath380" clipPathUnits="userSpaceOnUse"><path id="path378" d="m 29214,10002.7 c 13.5,-2.9 26.8,-6.06 39.9,-9.45 394.2,-102.36 643,-474.66 695.9,-864.24 37.2,-274.32 21.6,-558.58 25.8,-834.92 4.6,-297.17 8.7,-594.41 3.7,-891.61 -3.7,-218.62 -9.9,-456.3 -122.6,-650.69 -120.1,-207.31 -367.7,-293.92 -595.2,-321.97 -138.1,-17.02 -277.3,-13.07 -415.7,-3.73 -109.9,7.41 -267.8,-4.47 -361.6,62.81 -53.6,38.46 -80.7,103.26 -102.1,165.66 -118.8,346.87 -137.3,719.02 -149,1085.48 -13.2,412.84 -19.1,825.93 -17.6,1238.98 0.9,256.59 32.3,494.3 145.5,726.8 147.4,302.68 551.1,361.78 853,296.88 z"/></clipPath><clipPath id="clipPath396" clipPathUnits="userSpaceOnUse"><path id="path394" d="m 28235.6,5161.66 c 129.7,-584.63 849.9,-2686.76 849.9,-2686.76 l 103.6,4.9 70.6,86.3 -195.5,2811.39 z"/></clipPath><clipPath id="clipPath416" clipPathUnits="userSpaceOnUse"><path id="path414" d="m 27232.2,5261.62 c 14.1,-598.68 313.9,-2800.42 313.9,-2800.42 l 102.5,-15.3 86,71 352.3,2796.11 z"/></clipPath><clipPath id="clipPath444" clipPathUnits="userSpaceOnUse"><path id="path442" d="m 27211.3,6985.39 c -43.9,26.97 -71.3,74.15 -74.2,125.64 -19.4,345.75 -88,2039.11 391.6,2547.4 387.5,410.67 740.7,216.93 740.7,216.93 0,0 994.1,-399.63 641.6,-1592.83 -77.3,-261.63 155,-832.27 88.4,-1126.7 -82.3,-363.95 -1427.9,-391.47 -1788.1,-170.44 z"/></clipPath><clipPath id="clipPath464" clipPathUnits="userSpaceOnUse"><path id="path462" d="m 27574.5,10609.6 c 0,0 -182.5,-626.91 150.5,-607.2 332.9,19.7 535.9,393.6 422.6,629.1 -113.3,235.5 -480.3,392.9 -573.1,-21.9 z"/></clipPath><clipPath id="clipPath524" clipPathUnits="userSpaceOnUse"><path id="path522" d="m 26967.6,8566.38 c 0,0 -545.8,-383.85 -672.8,-339.81 -282.7,98.05 -661.6,1587.44 -661.6,1587.44 l 171,117.32 c 0,0 575.4,-911.65 611.3,-1072.29 l 172,134.95 c 0,0 258.3,-289.83 380.1,-427.61 z"/></clipPath></defs><g transform="matrix(1.3333333,0,0,-1.3333333,0,1886.1867)" id="g10"><g transform="scale(0.1)" id="g12"><g transform="scale(2.10877)" id="g14"/><path id="path18" style="fill:#001463;fill-opacity:1;fill-rule:nonzero;stroke:none" d="m 5168.75,2176.4 h -218.43 v 9310.2 h 218.43 V 2176.4"/><path id="path20" style="fill:#4b68db;fill-opacity:1;fill-rule:nonzero;stroke:none" d="m 6396.43,10208.2 -2708.97,129.6 -461.89,384.8 496.52,339 2708.97,-129.6 -34.63,-723.8"/><path id="path22" style="fill:#4b68db;fill-opacity:1;fill-rule:nonzero;stroke:none" d="m 6442.61,7870.26 -2700,-255.57 -511.76,315.49 443.48,405.92 2699.99,255.57 68.29,-721.41"/><path id="path24" style="fill:#4b68db;fill-opacity:1;fill-rule:nonzero;stroke:none" d="m 3548.59,9629.42 2703.02,221.37 507.72,-321.95 -448.58,-400.27 -2703.01,-221.37 -59.15,722.22"/><path id="path26" style="fill:#a696f9;fill-opacity:1;fill-rule:nonzero;stroke:none" d="m 11141.6,2176.4 c 0,-141.4 -1010.5,-256 -2257.03,-256 -1246.53,0 -2257.05,114.6 -2257.05,256 0,141.4 1010.52,256 2257.05,256 1246.53,0 2257.03,-114.6 2257.03,-256"/><path id="path28" style="fill:#da8c8d;fill-opacity:1;fill-rule:nonzero;stroke:none" d="m 5801.49,10987.6 c 0,0 -130.11,93 -229.46,83 -99.35,-9.9 -253.86,-83 -253.86,-83 0,0 320.09,-198.5 412.82,-191.8 92.73,6.6 70.5,191.8 70.5,191.8"/><path id="path30" style="fill:#da8c8d;fill-opacity:1;fill-rule:nonzero;stroke:none" d="m 7523.88,9895.93 -380.64,139.27 -1341.75,952.4 -110.4,-175.6 c 0,0 761.05,-918.27 1157.06,-1171.66 0,0 247.46,-230.66 537.89,-260.2 290.44,-29.54 137.84,515.79 137.84,515.79"/><g id="g32"><g clip-path="url(#clipPath38)" id="g34"><path id="path40" style="fill:#c17276;fill-opacity:1;fill-rule:nonzero;stroke:none" d="m 7294.81,10011.9 c 0,0 -195.62,-336.91 -395.59,-449.93 -199.97,-113.03 581.74,-243.44 664.73,-204.32 82.98,39.13 -47.72,639.88 -47.72,639.88 l -221.42,14.37"/></g></g><path id="path42" style="fill:#da8c8d;fill-opacity:1;fill-rule:nonzero;stroke:none" d="M 9089.32,5161.66 C 9219.06,4577.03 9939.29,2474.9 9939.29,2474.9 l 103.61,4.9 70.5,86.3 -195.5,2811.39 -828.58,-215.83"/><path id="path44" style="fill:#343766;fill-opacity:1;fill-rule:nonzero;stroke:none" d="m 10126.1,2595.6 -241.25,-53.2 38.27,-112.8 c 0,0 -259.79,-83.7 -358.9,-253.2 l 615.98,121.1 -54.1,298.1"/><path id="path46" style="fill:#da8c8d;fill-opacity:1;fill-rule:nonzero;stroke:none" d="m 8085.91,5419.24 c 14.13,-598.68 313.88,-2958.04 313.88,-2958.04 l 102.57,-15.3 85.95,71 352.29,2796.11 -854.69,106.23"/><g id="g48"><g clip-path="url(#clipPath54)" id="g50"><path id="path56" style="fill:#c17276;fill-opacity:1;fill-rule:nonzero;stroke:none" d="m 8841.37,4833.95 c 46.6,6.97 94.73,16.75 132.38,45.08 43.13,32.46 66.39,84.69 82.51,136.2 22.83,72.96 34.06,155.41 -0.73,223.48 -36.77,71.96 -115.77,110.94 -191.63,138.77 -200.67,73.63 -417.31,103.41 -630.4,86.64 -60.53,-4.76 -122.5,-13.79 -175.14,-44.05 -77.33,-44.45 -124.79,-131.94 -131.78,-220.87 -6.08,-77.45 16.85,-150.51 51.87,-218.62 9.63,-18.71 17.86,-39.11 35.7,-51.57 25.57,-17.86 60.3,-25.49 89.58,-34.87 151.52,-48.56 310.19,-74.66 469.26,-77.57 89.73,-1.64 179.61,4.11 268.38,17.38"/></g></g><path id="path58" style="fill:#343766;fill-opacity:1;fill-rule:nonzero;stroke:none" d="m 8606.43,2543.4 -246.98,-5.5 15.7,-118.1 c 0,0 -271.06,-31.8 -401.11,-178.9 l 627.76,-0.4 4.63,302.9"/><path id="path60" style="fill:#4b68db;fill-opacity:1;fill-rule:nonzero;stroke:none" d="M 8211.07,7425.91 7974.04,5233.99 c 0,0 638.34,-302.97 995.03,-169.3 0,0 931.08,37.38 1015.07,150.37 0,0 -49.89,1805.92 -303.38,2273.01 0,0 -1196.73,-129.24 -1469.69,-62.16"/><g id="g62"><g clip-path="url(#clipPath68)" id="g64"/></g><path id="path72" style="fill:#001463;fill-opacity:1;fill-rule:nonzero;stroke:none" d="m 8969.07,5064.69 c 0,0 -19.72,1311.52 -32.82,1564.18 0,0 -325.18,-1387.57 -217.73,-1597.54 0,0 195.2,-6.25 250.55,33.36"/><path id="path74" style="fill:#c6bbff;fill-opacity:1;fill-rule:nonzero;stroke:none" d="m 8065.05,6985.39 c -43.95,26.97 -71.34,74.15 -74.23,125.64 -19.39,345.75 -88.02,2039.11 391.62,2547.4 387.49,410.67 740.66,216.93 740.66,216.93 0,0 994.1,-399.63 641.64,-1592.83 -77.29,-261.63 154.96,-832.27 88.39,-1126.7 -82.3,-363.95 -1427.91,-391.47 -1788.08,-170.44"/><path id="path76" style="fill:#a696f9;fill-opacity:1;fill-rule:nonzero;stroke:none" d="m 9597.65,10259.2 c -47.58,-58.1 -367.94,97.2 -661.21,337.5 -293.28,240.4 -492.46,482.3 -444.89,540.3 47.58,58.1 323.89,-89.7 617.17,-330.1 293.27,-240.3 536.5,-489.7 488.93,-547.7"/><path id="path78" style="fill:#da8c8d;fill-opacity:1;fill-rule:nonzero;stroke:none" d="m 8642.86,10661.3 c 0,0 -281.77,-589.1 50,-623.6 331.77,-34.6 592.73,301.4 519.13,552.2 -73.6,250.7 -410.22,465.5 -569.13,71.4"/><g id="g80"><g clip-path="url(#clipPath86)" id="g82"><path id="path88" style="fill:#c17276;fill-opacity:1;fill-rule:nonzero;stroke:none" d="m 9123.74,10567.4 c 40,8.7 84.8,23.2 101.3,60.6 18.97,43.1 -10.25,92.2 -44.45,124.4 -84.66,79.9 -203.16,114.3 -319.03,125.2 -85.47,8 -175.13,3.8 -255.39,-29.2 -74.1,-30.5 -148.65,-94.3 -165.54,-176.5 -12.84,-62.5 40.8,-93.9 93.05,-108.8 78.97,-22.6 165.9,-26.8 247.49,-28.5 102.35,-2.2 204.93,6.2 305.52,25.3 12.38,2.4 24.73,4.9 37.05,7.5"/><path id="path90" style="fill:#ffffff;fill-opacity:1;fill-rule:nonzero;stroke:none" d="m 8559.69,10263.7 c 0,0 180.41,23.3 186.44,0 6.03,-23.3 -99.54,-59.4 -143.99,-51 -44.45,8.3 -42.45,51 -42.45,51"/></g></g><path id="path92" style="fill:#da8c8d;fill-opacity:1;fill-rule:nonzero;stroke:none" d="m 9222.71,10457.6 c 0,0 -97.56,-310.5 -47.92,-636.13 0,0 -217.84,-120.28 -377.68,-91.17 -159.84,29.1 107.26,581.3 107.26,581.3 l 318.34,146"/><path id="path94" style="fill:#c17276;fill-opacity:1;fill-rule:nonzero;stroke:none" d="m 8792.93,10038.3 c 0,0 21.49,-11.9 160.18,65.5 0,0 -6.7,-141.09 -193.9,-183.83 0,0 21.15,82.83 33.72,118.33"/><path id="path96" style="fill:#001463;fill-opacity:1;fill-rule:nonzero;stroke:none" d="m 9068.43,10650.3 c -9.12,-85.8 -1.12,-173.5 23.39,-256.3 1.89,22 9.69,47.5 30.69,54.4 16.33,5.4 34.78,-3.7 44.86,-17.6 10.08,-13.9 13.35,-31.6 14.71,-48.7 1.86,-23.5 0.49,-47.8 -9.09,-69.2 -9.59,-21.5 -28.53,-39.7 -51.68,-43.8 13.95,-60.1 26.61,-121.8 40.57,-181.9 120.9,91.5 209.5,224.8 247.01,371.7 9.86,38.7 16.32,78.4 15.47,118.3 -1.41,65.4 -22.97,130.2 -61.01,183.3 -15.1,21.1 -33.05,40.7 -55.39,53.9 -51.11,30.1 -120.07,21 -167.02,-15.4 -46.95,-36.3 -66.24,-89.6 -72.51,-148.7"/><path id="path98" style="fill:#001463;fill-opacity:1;fill-rule:nonzero;stroke:none" d="m 8784.76,11041.8 c 90,-10.3 181,-15.9 258.89,-11.4 4.81,0.3 9.55,0.5 14.21,0.5 232.27,2.4 240.38,-346.9 8.54,-361.4 -123.99,-7.8 -257.09,-12.8 -320.96,-4.2 0,0 -288.75,-24.2 -392.97,79.8 -104.22,104 116.27,345.4 432.29,296.7"/><path id="path100" style="fill:#ffffff;fill-opacity:1;fill-rule:nonzero;stroke:none" d="m 8798.5,9731.9 -150.74,-80.33 c 0,0 24.18,160.33 56.73,229.63 l 50.85,14.74 c 0,0 -14.2,-121.11 43.16,-164.04"/><path id="path102" style="fill:#ffffff;fill-opacity:1;fill-rule:nonzero;stroke:none" d="m 8798.5,9731.9 102.7,-231.69 c 0,0 302.01,161.77 348.09,295.25 l -70.87,48.49 c 0,0 -228.16,-118.97 -379.92,-112.05"/><path id="path104" style="fill:#c6bbff;fill-opacity:1;fill-rule:nonzero;stroke:none" d="m 8733.57,11069.8 c 0,0 561.26,-380.2 729.63,-606.6 0,0 147.18,389.5 45.3,496.9 -101.88,107.5 -182.63,120 -182.63,120 0,0 -42.19,90.9 -144.37,133 -156.16,64.3 -447.93,-143.3 -447.93,-143.3"/><path id="path106" style="fill:#a696f9;fill-opacity:1;fill-rule:nonzero;stroke:none" d="m 8491.55,11137 c 0,0 766.55,-806.4 1062.05,-870.4 295.5,-64 -711.63,967 -1062.05,870.4"/><path id="path108" style="fill:#c6bbff;fill-opacity:1;fill-rule:nonzero;stroke:none" d="m 9292.12,9781.73 c 0,0 784.58,-483.04 992.68,-1419.33 0,0 -504.86,-139.38 -809.34,-227.13 -247.17,-71.24 -183.34,1646.46 -183.34,1646.46"/><path id="path110" style="fill:#a696f9;fill-opacity:1;fill-rule:nonzero;stroke:none" d="m 9475.46,8135.27 c 0,0 -59.52,441.4 -115.02,537.72 -55.49,96.31 32.57,-627.39 57.51,-764.75 24.95,-137.35 447.33,-656.3 447.33,-656.3 0,0 -70.24,828.6 -58.24,918.61 10.73,80.51 -331.58,-35.28 -331.58,-35.28"/><path id="path112" style="fill:#c6bbff;fill-opacity:1;fill-rule:nonzero;stroke:none" d="m 8755.34,9895.94 -1414.31,115.96 -118.24,-669.12 c 0,0 871.41,-456.91 1036.74,-385.36 165.33,71.55 495.81,938.52 495.81,938.52"/><g id="g114"><g clip-path="url(#clipPath120)" id="g116"><path id="path122" style="fill:#a696f9;fill-opacity:1;fill-rule:nonzero;stroke:none" d="m 8082.78,8949.81 c 0,0 52.02,353.47 175.84,531.05 0,0 -539.08,-231.26 -545.14,-372.59 -6.06,-141.34 369.3,-158.46 369.3,-158.46"/></g></g><path id="path124" style="fill:#f3b304;fill-opacity:1;fill-rule:nonzero;stroke:none" d="m 8647.79,3908.9 c 0,0 463.54,1485.72 764.41,1698.03 300.86,212.32 1771.5,386.07 1967.6,256.23 196.1,-129.84 1145.4,-1448.12 814.2,-1546.77 C 11862.8,4217.73 8637.4,3300.7 8647.79,3908.9"/><g id="g126"><g clip-path="url(#clipPath132)" id="g128"><path id="path134" style="fill:#001463;fill-opacity:1;fill-rule:nonzero;stroke:none" d="m 8622.73,4087.7 c -3.97,-6.5 768.08,-120.4 1494.17,12.5 726.2,132.97 2167.3,732.42 2359.7,558.46 192.3,-173.95 143.3,-537.46 -372,-598.16 -515.2,-60.6 -2659.59,-615.2 -3125.73,-524.4 -466.15,90.7 -356.14,551.6 -356.14,551.6"/></g></g><path id="path136" style="fill:#001463;fill-opacity:1;fill-rule:nonzero;stroke:none" d="m 9828.26,5453.96 c -1.81,0 -3.64,0.09 -5.47,0.27 -29.87,2.99 -51.65,29.62 -48.66,59.47 0.54,5.48 13.88,135.78 54,274.07 57.96,199.78 142.09,313.33 250.07,337.49 109.1,24.42 291.9,40.79 455.3,40.79 0.4,0 0.9,0 1.3,0 283.8,-0.15 347.3,-44.62 370.9,-83.33 54,-88.54 103,-384.84 108.4,-418.33 4.7,-29.62 -15.4,-57.51 -45,-62.29 -29.6,-4.81 -57.5,15.35 -62.3,44.99 -18.9,116.63 -60.3,319.84 -92.4,376.57 -15.1,10.71 -93.5,35.1 -298.5,33.65 -150.7,-1.11 -317.1,-16.42 -414,-38.1 -125.19,-28.02 -201.16,-331.57 -219.64,-516.32 -2.8,-28.02 -26.43,-48.93 -54,-48.93"/><path id="path138" style="fill:#da8c8d;fill-opacity:1;fill-rule:nonzero;stroke:none" d="m 10356.5,6292.43 c 0,0 -44.1,1316.49 -71.7,1436.85 -64.3,279.55 -146.9,591.45 -146.9,591.45 l -465.29,-129.26 c 0,0 132.52,-450.86 169.11,-553.29 31.44,-88.04 209.58,-1019.08 258.98,-1278.8 -22.9,-61.17 -67.5,-191.9 -52.7,-247.67 19.7,-74.06 201.4,-107.65 201.4,-107.65 0,0 112.9,0 144.9,39.29 32,39.29 -37.8,249.08 -37.8,249.08"/><g id="g140"><g clip-path="url(#clipPath146)" id="g142"><path id="path148" style="fill:#c17276;fill-opacity:1;fill-rule:nonzero;stroke:none" d="m 10183.9,8231.37 c 0,0 -333.29,-301.13 -491.17,-312.82 -157.87,-11.7 -105.24,342.05 -105.24,342.05 l 578.81,160.8 c 0,0 70.5,-144.16 17.6,-190.03"/></g></g><g transform="scale(1.16504)" id="g150"/><g transform="scale(1.09617)" id="g154"/><g id="g158"><g clip-path="url(#clipPath164)" id="g160"><g transform="scale(1.08823)" id="g166"/></g></g><g transform="scale(1.10026)" id="g170"/><g transform="scale(1.02421)" id="g174"/><g id="g178"><g clip-path="url(#clipPath184)" id="g180"><g transform="scale(1.02423)" id="g186"/></g></g><g transform="scale(1.00371)" id="g190"/><g transform="scale(1.08823)" id="g194"/><g transform="scale(1.02596)" id="g198"/><g transform="scale(1.0964)" id="g202"/><g transform="scale(1.00723)" id="g206"/><g transform="scale(1.05688)" id="g212"/><g transform="scale(1.0349)" id="g216"/><g id="g220"><g clip-path="url(#clipPath226)" id="g222"><g transform="scale(1.02907)" id="g228"/><g transform="scale(1.00396)" id="g232"/></g></g><g transform="scale(1.03334)" id="g236"/><g transform="scale(1.0181)" id="g240"/><g transform="scale(1.04138)" id="g244"/><g transform="scale(1.03223)" id="g248"/><g transform="scale(1.01145)" id="g252"/><g transform="scale(1.0381)" id="g256"/><g transform="scale(1.04944)" id="g260"/><g transform="scale(1.07037)" id="g264"/><g transform="scale(1.10668)" id="g274"/><g transform="scale(1.08094)" id="g278"/><g transform="scale(1.10285)" id="g282"/><g id="g286"><g clip-path="url(#clipPath292)" id="g288"><g transform="scale(1.09945)" id="g294"/></g></g><g transform="scale(1.18942)" id="g298"/><g transform="scale(1.27077)" id="g302"/><g transform="scale(1.1809)" id="g306"/><g transform="scale(1.26185)" id="g310"/><g transform="scale(1.29572)" id="g314"/><g id="g318"><g clip-path="url(#clipPath324)" id="g320"><g transform="scale(1.29577)" id="g326"/></g></g><g transform="scale(1.28333)" id="g330"/><g transform="scale(1.28333)" id="g334"/><g transform="scale(1.28333)" id="g338"/><g transform="scale(1.28333)" id="g342"/><g transform="scale(1.28333)" id="g346"/><g transform="scale(1.25352)" id="g350"/><g transform="scale(1.23481)" id="g354"/><g transform="scale(1.87548)" id="g358"/><g transform="scale(1.67547)" id="g362"/><g transform="scale(1.59767)" id="g366"/><g transform="scale(1.83969)" id="g370"/><g id="g374"><g clip-path="url(#clipPath380)" id="g376"><g transform="scale(1.83939)" id="g382"/></g></g><g transform="scale(1.79507)" id="g386"/><g id="g390"><g clip-path="url(#clipPath396)" id="g392"><g transform="scale(1.78714)" id="g398"/></g></g><g transform="scale(1.79917)" id="g402"/><g transform="scale(1.72312)" id="g406"/><g id="g410"><g clip-path="url(#clipPath416)" id="g412"><g transform="scale(1.72313)" id="g418"/></g></g><g transform="scale(1.70262)" id="g422"/><g transform="scale(1.78714)" id="g426"/><g transform="scale(1.72487)" id="g430"/><g transform="scale(1.79531)" id="g434"/><g id="g438"><g clip-path="url(#clipPath444)" id="g440"><g transform="scale(1.77988)" id="g446"/></g></g><g transform="scale(1.75579)" id="g450"/><g transform="scale(1.7338)" id="g454"/><g id="g458"><g clip-path="url(#clipPath464)" id="g460"><g transform="scale(1.72798)" id="g466"/></g></g><g transform="scale(1.73225)" id="g470"/><g transform="scale(1.71701)" id="g474"/><g transform="scale(1.74028)" id="g478"/><g transform="scale(1.73114)" id="g482"/><g transform="scale(1.71036)" id="g486"/><g transform="scale(1.73701)" id="g490"/><g transform="scale(1.74835)" id="g494"/><g transform="scale(1.76927)" id="g498"/><g transform="scale(1.70401)" id="g502"/><g transform="scale(1.58369)" id="g506"/><g transform="scale(1.5865)" id="g510"/><g transform="scale(1.65445)" id="g514"/><g id="g518"><g clip-path="url(#clipPath524)" id="g520"><g transform="scale(1.65448)" id="g526"/></g></g><g transform="scale(1.69663)" id="g530"/><g transform="scale(1.6746)" id="g534"/><g transform="scale(1.58393)" id="g538"/><g transform="scale(1.80442)" id="g542"/><g transform="scale(1.7909)" id="g546"/><g transform="scale(1.68944)" id="g550"/><g transform="scale(1.82104)" id="g554"/><g transform="scale(1.82066)" id="g558"/></g></g></svg>