<?xml version="1.0" standalone="no"?>
<!DOCTYPE svg PUBLIC "-//W3C//DTD SVG 20010904//EN"
 "http://www.w3.org/TR/2001/REC-SVG-20010904/DTD/svg10.dtd">
<svg version="1.0" xmlns="http://www.w3.org/2000/svg"
 width="109.000000pt" height="109.000000pt" viewBox="0 0 109.000000 109.000000"
 preserveAspectRatio="xMidYMid meet">

<g transform="translate(0.000000,109.000000) scale(0.100000,-0.100000)"
fill="#000000" stroke="none">
<path d="M415 1015 c-156 -55 -273 -178 -319 -334 -23 -78 -21 -213 4 -294
111 -358 569 -469 836 -203 51 51 104 128 104 151 0 3 -94 5 -209 5 l-209 0 4
38 c6 48 -20 99 -66 130 -29 20 -44 23 -88 20 -45 -4 -59 -10 -89 -41 -31 -30
-37 -44 -41 -92 l-5 -56 -71 3 -71 3 -9 41 c-13 62 8 147 44 178 44 37 130 65
238 78 82 10 104 17 142 44 107 76 260 139 350 146 l35 3 -39 42 c-54 60 -147
119 -223 143 -95 29 -226 27 -318 -5z m134 -551 c39 -32 49 -80 26 -124 -20
-38 -74 -64 -116 -55 -38 8 -79 59 -79 96 0 36 23 84 47 98 34 19 90 13 122
-15z"/>
</g>
</svg>
