<svg xmlns="http://www.w3.org/2000/svg" viewBox="0 0 1920 1080"><g transform="          rotate(322 960 540)           translate(-847.2192413515772 -476.56082326026217)          scale(1.8825200430745597)        "><rect width="1920" height="1080" fill="rgb(236, 175, 78)"></rect><g transform="translate(0, 0)"><path fill="rgb(157, 117, 52)" fill-opacity="1" d="M0,352.943L35.556,350.075C71.111,347.207,142.222,341.471,213.333,340.581C284.444,339.692,355.556,343.65,426.667,344.095C497.778,344.54,568.889,341.472,640,303.183C711.111,264.894,782.222,191.383,853.333,185.175C924.444,178.967,995.556,240.06,1066.667,221.336C1137.778,202.612,1208.889,104.069,1280,98.48C1351.111,92.892,1422.222,180.258,1493.333,202.019C1564.444,223.78,1635.556,179.937,1706.667,139.356C1777.778,98.774,1848.889,61.455,1884.444,42.796L1920,24.136L1920,1080L1884.444,1080C1848.889,1080,1777.778,1080,1706.667,1080C1635.556,1080,1564.444,1080,1493.333,1080C1422.222,1080,1351.111,1080,1280,1080C1208.889,1080,1137.778,1080,1066.667,1080C995.556,1080,924.444,1080,853.333,1080C782.222,1080,711.111,1080,640,1080C568.889,1080,497.778,1080,426.667,1080C355.556,1080,284.444,1080,213.333,1080C142.222,1080,71.111,1080,35.556,1080L0,1080Z"></path></g><g transform="translate(0, 360)"><path fill="rgb(79, 58, 26)" fill-opacity="1" d="M0,251.675L35.556,227.428C71.111,203.181,142.222,154.687,213.333,130.414C284.444,106.141,355.556,106.09,426.667,141.274C497.778,176.458,568.889,246.877,640,284.697C711.111,322.517,782.222,327.739,853.333,284.675C924.444,241.611,995.556,150.263,1066.667,112.623C1137.778,74.983,1208.889,91.052,1280,126.273C1351.111,161.493,1422.222,215.866,1493.333,254.33C1564.444,292.794,1635.556,315.35,1706.667,300.514C1777.778,285.679,1848.889,233.452,1884.444,207.339L1920,181.225L1920,720L1884.444,720C1848.889,720,1777.778,720,1706.667,720C1635.556,720,1564.444,720,1493.333,720C1422.222,720,1351.111,720,1280,720C1208.889,720,1137.778,720,1066.667,720C995.556,720,924.444,720,853.333,720C782.222,720,711.111,720,640,720C568.889,720,497.778,720,426.667,720C355.556,720,284.444,720,213.333,720C142.222,720,71.111,720,35.556,720L0,720Z"></path></g><g transform="translate(0, 720)"><path fill="rgb(0, 0, 0)" fill-opacity="1" d="M0,19.072L35.556,16.339C71.111,13.606,142.222,8.141,213.333,41.079C284.444,74.017,355.556,145.358,426.667,167.782C497.778,190.206,568.889,163.713,640,136.177C711.111,108.642,782.222,80.062,853.333,72.255C924.444,64.448,995.556,77.412,1066.667,86.608C1137.778,95.804,1208.889,101.232,1280,133.056C1351.111,164.88,1422.222,223.101,1493.333,262.75C1564.444,302.399,1635.556,323.476,1706.667,336.118C1777.778,348.761,1848.889,352.969,1884.444,355.073L1920,357.177L1920,360L1884.444,360C1848.889,360,1777.778,360,1706.667,360C1635.556,360,1564.444,360,1493.333,360C1422.222,360,1351.111,360,1280,360C1208.889,360,1137.778,360,1066.667,360C995.556,360,924.444,360,853.333,360C782.222,360,711.111,360,640,360C568.889,360,497.778,360,426.667,360C355.556,360,284.444,360,213.333,360C142.222,360,71.111,360,35.556,360L0,360Z"></path></g></g></svg>