<svg version="1.1" id="svg5" xml:space="preserve" inkscape:version="1.2.2 (b0a8486541, 2022-12-01)" sodipodi:docname="logo.svg" xmlns:inkscape="http://www.inkscape.org/namespaces/inkscape" xmlns:sodipodi="http://sodipodi.sourceforge.net/DTD/sodipodi-0.dtd" xmlns="http://www.w3.org/2000/svg" xmlns:svg="http://www.w3.org/2000/svg" viewBox="4.93 87.68 196.79 59.95"><sodipodi:namedview id="namedview7" pagecolor="#ffffff" bordercolor="#000000" borderopacity="0.25" inkscape:showpageshadow="2" inkscape:pageopacity="0.0" inkscape:pagecheckerboard="0" inkscape:deskcolor="#d1d1d1" inkscape:document-units="mm" showgrid="false" inkscape:zoom="1.0462801" inkscape:cx="424.36056" inkscape:cy="545.74297" inkscape:window-width="1920" inkscape:window-height="1131" inkscape:window-x="0" inkscape:window-y="0" inkscape:window-maximized="1" inkscape:current-layer="layer1"/><defs id="defs2"/><g inkscape:label="Layer 1" inkscape:groupmode="layer" id="layer1"><path d="M 24.968077,89.22105 C 15.653166,92.505153 8.666985,99.849601 5.9202793,109.1645 c -1.3733522,4.65747 -1.2539307,12.71844 0.2388443,17.55504 6.6279154,21.3765 33.9755364,28.00444 49.9183644,12.12131 3.045259,-3.04526 6.209939,-7.64301 6.209939,-9.01636 0,-0.17912 -5.612829,-0.29853 -12.479592,-0.29853 H 37.328246 l 0.238843,-2.26902 c 0.358267,-2.86613 -1.19422,-5.9114 -3.940923,-7.76244 -1.731619,-1.19423 -2.627283,-1.37335 -5.254565,-1.19423 -2.686994,0.23886 -3.522948,0.59712 -5.314276,2.44817 -1.85104,1.79133 -2.209306,2.62727 -2.44815,5.49341 l -0.298554,3.34381 -4.239478,-0.17914 -4.239479,-0.17913 -0.537398,-2.44815 c -0.776243,-3.70207 0.477688,-8.77751 2.627282,-10.62855 2.627283,-2.2093 7.762425,-3.88121 14.211209,-4.65745 4.896299,-0.59711 6.20994,-1.0151 8.478955,-2.62728 6.389074,-4.53805 15.524851,-8.29982 20.898839,-8.71781 l 2.089882,-0.179121 -2.328725,-2.50787 C 54.047316,93.878502 48.494194,90.355558 43.956162,88.922495 38.28362,87.190877 30.461485,87.310299 24.968077,89.22105 Z m 8.001268,32.90074 c 2.328727,1.91075 2.925837,4.77686 1.552483,7.40417 -1.194217,2.269 -4.418609,3.82148 -6.926469,3.28409 -2.269019,-0.47769 -4.717166,-3.52296 -4.717166,-5.73225 0,-2.14959 1.37335,-5.01573 2.806414,-5.85168 2.030173,-1.1345 5.373988,-0.77625 7.284738,0.89567 z" id="path242" style="fill:#000000;stroke:none;stroke-width:0.059711"/><text xml:space="preserve" style="font-size:17.6389px;font-family:'URW Bookman';-inkscape-font-specification:'URW Bookman';text-align:center;text-anchor:middle;fill:#000000;fill-opacity:1;stroke:#363635;stroke-width:0.002" x="67.048683" y="110.86567" id="text1762"><tspan sodipodi:role="line" id="tspan1760" style="stroke-width:0.002;fill:#000000;fill-opacity:1" x="67.048683" y="110.86567"/></text><text xml:space="preserve" style="font-style:normal;font-variant:normal;font-weight:normal;font-stretch:normal;font-size:14.1111px;font-family:Rachana;-inkscape-font-specification:Rachana;text-align:center;text-anchor:middle;fill:#000000;fill-opacity:1;stroke:#363635;stroke-width:0.002" x="52.78664" y="114.02368" id="text2135"><tspan sodipodi:role="line" id="tspan2133" style="stroke-width:0.002" x="52.78664" y="114.02368"/></text><text xml:space="preserve" style="font-style:normal;font-variant:normal;font-weight:normal;font-stretch:normal;font-size:32.7846px;font-family:C059;-inkscape-font-specification:C059;text-align:center;text-anchor:middle;fill:#000000;fill-opacity:1;stroke:#363635;stroke-width:0.00371727" x="120.21231" y="127.2942" id="text2081-3"><tspan sodipodi:role="line" id="tspan2079-7" style="font-style:normal;font-variant:normal;font-weight:normal;font-stretch:normal;font-family:C059;-inkscape-font-specification:C059;stroke-width:0.00371727" x="120.21231" y="127.2942">CabMiloge</tspan></text></g></svg>