<?xml version="1.0" encoding="UTF-8" standalone="no"?>
<svg
   version="1.1"
   id="svg5"
   xml:space="preserve"
   inkscape:version="1.2.2 (b0a8486541, 2022-12-01)"
   sodipodi:docname="logo.svg"
   viewBox="4.93 87.68 192.82 64.2"
   xmlns:inkscape="http://www.inkscape.org/namespaces/inkscape"
   xmlns:sodipodi="http://sodipodi.sourceforge.net/DTD/sodipodi-0.dtd"
   xmlns="http://www.w3.org/2000/svg"
   xmlns:svg="http://www.w3.org/2000/svg"><sodipodi:namedview
     id="namedview7"
     pagecolor="#ffffff"
     bordercolor="#000000"
     borderopacity="0.25"
     inkscape:showpageshadow="2"
     inkscape:pageopacity="0.0"
     inkscape:pagecheckerboard="0"
     inkscape:deskcolor="#d1d1d1"
     inkscape:document-units="mm"
     showgrid="false"
     inkscape:zoom="4.7258536"
     inkscape:cx="70.463461"
     inkscape:cy="19.890587"
     inkscape:window-width="1920"
     inkscape:window-height="1131"
     inkscape:window-x="0"
     inkscape:window-y="0"
     inkscape:window-maximized="1"
     inkscape:current-layer="layer1" /><defs
     id="defs2" /><g
     inkscape:label="Layer 1"
     inkscape:groupmode="layer"
     id="layer1"><path
       d="m 25.261176,89.243312 c -9.45137,3.332213 -16.5398958,10.784258 -19.3268398,20.235608 -1.393471,4.72571 -1.2722995,12.90476 0.2423439,17.81221 6.7250109,21.68966 34.4732629,28.41471 50.6496449,12.29889 3.089872,-3.08988 6.300913,-7.75498 6.300913,-9.14845 0,-0.18175 -5.695054,-0.3029 -12.662412,-0.3029 h -12.66241 l 0.242342,-2.30226 c 0.363515,-2.90812 -1.211714,-5.998 -3.998655,-7.87616 -1.756987,-1.21172 -2.665772,-1.39346 -5.331542,-1.21172 -2.726359,0.24236 -3.574558,0.60587 -5.392129,2.48403 -1.878157,1.81757 -2.241672,2.66576 -2.484014,5.57389 l -0.302928,3.3928 -4.301584,-0.18177 -4.301586,-0.18175 -0.54527,-2.48401 c -0.787615,-3.75631 0.484686,-8.90611 2.66577,-10.78425 2.665772,-2.24167 7.876142,-3.93808 14.419397,-4.7257 4.968027,-0.60585 6.300912,-1.02996 8.603168,-2.66576 6.482671,-4.60453 15.752284,-8.42141 21.204998,-8.84552 l 2.120498,-0.18175 -2.36284,-2.544605 C 54.766412,93.968994 49.13194,90.39444 44.527428,88.940383 38.771786,87.183398 30.835061,87.30457 25.261176,89.243312 Z m 8.118483,33.382728 c 2.362842,1.93873 2.9687,4.84684 1.575226,7.51263 -1.211711,2.30225 -4.483339,3.87746 -7.027939,3.33221 -2.302258,-0.4847 -4.78627,-3.57458 -4.78627,-5.81623 0,-2.18108 1.393469,-5.08921 2.847526,-5.93741 2.059915,-1.15112 5.452716,-0.78761 7.391457,0.9088 z"
       id="path242"
       style="fill:#4b68db;fill-opacity:1;stroke:none;stroke-width:0.0605857" /><text
       xml:space="preserve"
       style="font-size:17.6389px;font-family:'URW Bookman';-inkscape-font-specification:'URW Bookman';text-align:center;text-anchor:middle;fill:#000000;fill-opacity:1;stroke:#363635;stroke-width:0.002"
       x="67.048683"
       y="110.86567"
       id="text1762"><tspan
         sodipodi:role="line"
         id="tspan1760"
         style="stroke-width:0.002;fill:#000000;fill-opacity:1"
         x="67.048683"
         y="110.86567" /></text><text
       xml:space="preserve"
       style="font-style:normal;font-variant:normal;font-weight:normal;font-stretch:normal;font-size:14.1111px;font-family:Rachana;-inkscape-font-specification:Rachana;text-align:center;text-anchor:middle;fill:#000000;fill-opacity:1;stroke:#363635;stroke-width:0.002"
       x="52.78664"
       y="114.02368"
       id="text2135"><tspan
         sodipodi:role="line"
         id="tspan2133"
         style="stroke-width:0.002"
         x="52.78664"
         y="114.02368" /></text><text
       xml:space="preserve"
       style="font-style:normal;font-variant:normal;font-weight:normal;font-stretch:normal;font-size:33.2648px;font-family:Lato;-inkscape-font-specification:Lato;text-align:center;text-anchor:middle;fill:#ecaf4e;fill-opacity:1;stroke:#363635;stroke-width:0.00377173"
       x="129.4425"
       y="129.87254"
       id="text2081-3"><tspan
         sodipodi:role="line"
         id="tspan2079-7"
         style="font-style:normal;font-variant:normal;font-weight:normal;font-stretch:normal;font-family:Lato;-inkscape-font-specification:Lato;fill:#ecaf4e;fill-opacity:1;stroke-width:0.00377173"
         x="129.4425"
         y="129.87254"><tspan
           style="fill:#7d9cec;fill-opacity:1"
           id="tspan15945">Cab</tspan><tspan
           style="fill:#4b68db;fill-opacity:1"
           id="tspan16775">मिलोगे</tspan></tspan></text></g></svg>
